{"glyphs":{"0":{"ha":1099,"x_min":38,"x_max":1054,"o":"m 38 489 q 78 300 38 389 q 187 146 118 211 q 348 42 256 81 q 544 4 440 4 q 743 42 650 4 q 905 146 836 81 q 1014 300 974 211 q 1054 489 1054 389 q 1014 677 1054 589 q 905 831 974 765 q 743 934 836 896 q 544 972 650 972 q 348 934 440 972 q 187 831 256 896 q 78 677 118 765 q 38 489 38 589 m 335 489 q 351 572 335 533 q 397 640 368 611 q 465 686 426 669 q 549 703 504 703 q 630 686 593 703 q 693 640 667 669 q 734 572 719 611 q 749 489 749 533 q 734 406 749 444 q 693 338 719 367 q 630 292 667 308 q 549 275 593 275 q 465 292 504 275 q 397 338 426 308 q 351 406 368 367 q 335 489 335 444 "},"1":{"ha":424,"x_min":53,"x_max":368,"o":"m 53 972 l 53 0 l 368 0 l 368 972 l 53 972 "},"2":{"ha":886,"x_min":68,"x_max":769,"o":"m 78 636 l 283 636 q 323 733 283 693 q 419 772 363 772 q 465 761 444 772 q 502 731 486 750 q 526 689 518 713 q 535 642 535 665 q 512 578 535 614 q 451 500 489 543 q 365 405 414 457 q 265 290 317 353 q 161 156 213 228 q 68 0 110 83 l 769 0 l 769 219 l 417 219 q 572 340 508 279 q 676 460 636 401 q 735 574 717 518 q 753 679 753 629 q 726 799 753 744 q 654 892 700 853 q 548 953 608 932 q 419 975 488 975 q 287 948 349 975 q 178 875 225 921 q 105 767 132 829 q 78 636 78 706 "},"3":{"ha":875,"x_min":113,"x_max":764,"o":"m 113 733 l 388 733 l 406 733 q 431 731 417 733 q 458 722 446 729 q 480 699 471 714 q 489 660 489 685 q 477 626 489 640 q 449 603 465 613 q 414 589 432 594 q 383 583 396 583 l 113 583 l 113 407 q 206 403 158 400 q 306 406 254 406 q 381 403 346 406 q 441 393 415 401 q 481 368 467 385 q 496 322 496 351 q 486 265 496 285 q 465 235 476 244 q 444 225 454 226 q 433 224 435 224 l 113 224 l 113 4 l 419 4 q 424 3 421 3 l 438 3 q 486 6 456 3 q 553 19 517 8 q 628 50 590 29 q 695 106 665 71 q 744 194 725 142 q 764 319 764 246 q 726 462 764 407 q 608 519 688 517 q 658 534 633 521 q 701 570 682 547 q 733 625 721 593 q 744 696 744 657 q 715 828 744 775 q 635 911 685 881 q 522 954 586 942 q 388 967 457 967 l 113 967 l 113 733 "},"4":{"ha":908,"x_min":58,"x_max":831,"o":"m 644 999 l 58 422 l 464 421 l 464 0 l 644 0 l 644 418 l 831 418 l 831 506 l 644 506 l 644 999 m 460 663 l 460 510 l 319 510 l 460 663 "},"5":{"ha":875,"x_min":110,"x_max":764,"o":"m 110 971 l 110 401 l 400 401 q 470 379 444 396 q 496 322 496 363 q 486 265 496 285 q 465 235 476 244 q 444 225 454 226 q 433 224 435 224 l 113 224 l 113 4 l 419 4 q 424 3 421 3 l 438 3 q 486 6 456 3 q 553 19 517 8 q 628 50 590 29 q 695 106 665 71 q 744 194 725 142 q 764 319 764 246 q 740 458 764 406 q 677 540 717 511 q 586 578 638 569 q 478 586 535 588 l 331 586 l 331 796 l 758 796 l 758 971 l 110 971 "},"6":{"ha":875,"x_min":60,"x_max":693,"o":"m 364 206 q 317 218 333 206 q 294 249 301 231 q 285 287 286 267 q 285 324 285 307 q 294 353 285 338 q 316 381 303 368 q 344 401 329 393 q 372 408 360 408 q 409 397 392 408 q 439 369 426 386 q 459 331 451 351 q 467 292 467 310 q 435 226 467 247 q 364 206 404 206 m 606 964 l 424 964 q 254 742 331 849 q 190 647 222 696 q 132 552 158 599 q 88 464 106 506 q 64 389 69 422 l 64 390 q 61 372 63 382 q 60 353 60 364 q 60 326 60 342 q 70 227 60 283 q 115 120 81 171 q 213 34 149 69 q 386 -1 278 -1 q 523 24 465 -1 q 618 90 581 49 q 674 185 656 132 q 693 293 693 238 q 669 408 693 351 q 599 501 644 464 q 488 549 553 539 q 340 528 422 560 q 370 574 353 546 q 408 637 388 603 q 452 708 429 671 q 497 782 475 746 q 606 964 549 868 "},"7":{"ha":814,"x_min":68,"x_max":753,"o":"m 447 764 l 253 0 l 513 0 l 753 972 l 68 972 l 68 764 l 447 764 "},"8":{"ha":1157,"x_min":188,"x_max":875,"o":"m 188 311 q 215 182 188 240 q 288 82 242 124 q 397 17 335 40 q 531 -6 460 -6 q 664 17 601 -6 q 774 82 726 40 q 848 182 821 124 q 875 311 875 240 q 866 378 875 350 q 842 427 857 407 q 806 462 826 447 q 764 488 786 476 q 792 508 776 493 q 823 547 808 524 q 848 599 838 569 q 858 664 858 629 q 833 786 858 731 q 763 881 807 842 q 658 941 718 919 q 532 963 599 963 q 406 941 465 963 q 301 881 346 919 q 231 786 257 842 q 206 664 206 731 q 213 600 206 631 q 232 547 221 569 q 258 508 243 524 q 285 489 272 493 q 254 467 271 482 q 223 431 238 453 q 198 379 208 410 q 188 311 188 349 m 453 288 q 469 338 453 315 q 514 368 486 361 l 553 368 q 599 338 581 361 q 618 288 618 315 q 594 229 618 253 q 535 206 569 206 q 476 229 500 206 q 453 288 453 253 m 481 679 q 497 719 481 703 q 536 736 513 736 q 576 719 560 736 q 593 679 593 703 q 582 645 593 660 q 551 625 571 631 l 519 625 q 492 645 503 631 q 481 679 481 660 "},"9":{"ha":875,"x_min":60,"x_max":693,"o":"m 389 757 q 435 744 419 757 q 458 714 451 732 q 467 676 465 696 q 468 639 468 656 q 459 609 468 624 q 437 582 450 594 q 408 562 424 569 q 381 554 393 554 q 344 565 361 554 q 314 594 326 576 q 294 631 301 611 q 286 671 286 651 q 317 736 286 715 q 389 757 349 757 m 147 -1 l 329 -1 q 499 221 422 114 q 563 315 531 267 q 621 410 594 364 q 665 499 647 457 q 689 574 683 540 l 689 572 q 690 589 689 579 q 692 609 692 597 q 693 636 693 621 q 683 735 693 679 q 638 842 672 792 q 540 928 604 893 q 367 964 475 964 q 230 939 288 964 q 135 872 172 914 q 78 778 97 831 q 60 669 60 725 q 84 555 60 611 q 154 461 108 499 q 265 413 200 424 q 413 435 331 403 q 382 388 400 417 q 343 326 364 360 q 300 254 322 292 q 256 181 278 217 q 147 -1 204 94 "}," ":{"ha":474,"x_min":0,"x_max":0,"o":""}," ":{"ha":474,"x_min":0,"x_max":0,"o":""},"O":{"ha":1099,"x_min":38,"x_max":1054,"o":"m 38 489 q 78 300 38 389 q 187 146 118 211 q 348 42 256 81 q 544 4 440 4 q 743 42 650 4 q 905 146 836 81 q 1014 300 974 211 q 1054 489 1054 389 q 1014 677 1054 589 q 905 831 974 765 q 743 934 836 896 q 544 972 650 972 q 348 934 440 972 q 187 831 256 896 q 78 677 118 765 q 38 489 38 589 m 335 489 q 351 572 335 533 q 397 640 368 611 q 465 686 426 669 q 549 703 504 703 q 630 686 593 703 q 693 640 667 669 q 734 572 719 611 q 749 489 749 533 q 734 406 749 444 q 693 338 719 367 q 630 292 667 308 q 549 275 593 275 q 465 292 504 275 q 397 338 426 308 q 351 406 368 367 q 335 489 335 444 "},"M":{"ha":1489,"x_min":38,"x_max":1443,"o":"m 496 972 l 38 0 l 365 0 l 533 346 l 749 6 l 944 346 l 1111 6 l 1443 6 l 989 972 l 740 554 l 496 972 "},"D":{"ha":1043,"x_min":79,"x_max":978,"o":"m 79 972 l 79 0 l 493 0 q 682 38 593 0 q 836 141 771 75 q 940 295 901 207 q 978 483 978 383 q 940 674 978 585 q 836 828 901 763 q 682 933 771 894 q 493 971 593 971 l 79 972 m 360 693 l 479 693 q 560 676 522 693 q 626 631 599 660 q 671 565 654 603 q 688 483 688 526 q 671 402 688 440 q 626 336 654 364 q 560 292 599 308 q 479 275 522 275 l 360 275 l 360 693 "},"E":{"ha":774,"x_min":68,"x_max":700,"o":"m 347 693 l 697 693 l 697 971 l 68 972 l 68 1 l 700 0 l 700 275 l 347 275 l 347 347 l 697 347 l 697 625 l 347 625 l 347 693 "},"F":{"ha":774,"x_min":68,"x_max":697,"o":"m 347 693 l 697 693 l 697 971 l 68 972 l 68 1 l 346 0 l 347 347 l 697 347 l 697 625 l 347 625 l 347 693 "},"G":{"ha":874,"x_min":53,"x_max":825,"o":"m 538 0 l 825 0 l 825 486 l 556 486 l 556 275 q 472 292 511 275 q 405 336 433 308 q 360 402 376 364 q 343 483 343 440 q 360 565 343 526 q 404 631 376 603 q 470 676 432 660 q 551 693 508 693 l 669 693 l 669 971 l 538 971 q 349 933 438 971 q 194 828 260 894 q 91 674 129 763 q 53 483 53 585 q 91 295 53 383 q 194 141 129 207 q 349 38 260 75 q 538 0 438 0 "},"H":{"ha":942,"x_min":53,"x_max":893,"o":"m 578 347 l 578 0 l 893 0 l 893 972 l 578 972 l 578 625 l 368 625 l 368 972 l 53 972 l 53 0 l 368 0 l 368 347 l 578 347 "},"J":{"ha":424,"x_min":-156,"x_max":369,"o":"m 369 -4 l 368 972 l 53 972 l 53 10 q 45 -72 53 -33 q 15 -137 38 -110 q -48 -182 -7 -165 q -156 -199 -89 -199 l -156 -489 q 66 -451 -32 -489 q 231 -347 164 -412 q 334 -193 299 -282 q 369 -4 369 -104 "},"K":{"ha":926,"x_min":53,"x_max":871,"o":"m 340 188 l 528 0 l 871 0 l 396 476 l 867 972 l 524 972 l 340 779 l 340 972 l 53 972 l 53 0 l 340 0 l 340 188 "},"B":{"ha":875,"x_min":78,"x_max":806,"o":"m 429 967 l 78 967 l 78 4 l 461 4 q 633 33 557 1 q 697 69 665 47 q 752 126 728 92 q 791 207 776 160 q 806 319 806 254 q 766 464 806 408 q 646 519 726 519 q 695 532 671 519 q 740 567 719 544 q 773 620 760 589 q 786 690 786 651 q 758 824 788 771 q 678 910 728 878 q 564 954 629 942 q 429 967 499 967 m 367 338 l 385 338 l 390 338 l 399 338 q 497 324 458 335 q 536 276 536 313 q 526 247 536 257 q 506 231 517 236 q 475 224 492 225 l 367 224 l 367 338 m 367 733 l 429 733 q 453 733 438 733 q 483 728 468 732 q 510 714 499 724 q 521 686 521 704 q 510 656 521 667 q 485 638 500 644 q 453 628 469 631 q 425 625 438 625 q 406 626 415 625 q 386 626 396 626 l 367 626 l 367 733 "},"L":{"ha":774,"x_min":68,"x_max":700,"o":"m 347 974 l 68 972 l 68 1 l 700 0 l 700 275 l 347 275 l 347 974 "},"N":{"ha":942,"x_min":82,"x_max":850,"o":"m 82 972 l 85 0 l 413 0 l 408 346 l 849 1 l 850 975 l 551 972 l 551 572 l 82 972 "},"P":{"ha":875,"x_min":78,"x_max":788,"o":"m 429 967 l 78 967 l 78 4 l 367 4 l 367 449 l 575 449 q 645 471 608 449 q 713 528 682 493 q 765 607 744 564 q 786 690 786 650 q 758 824 788 771 q 678 910 728 878 q 564 954 629 942 q 429 967 499 967 m 367 733 l 429 733 q 453 733 438 733 q 483 728 468 732 q 510 714 499 724 q 521 686 521 704 q 510 656 521 667 q 485 638 500 644 q 453 628 469 631 q 425 625 438 625 q 406 626 415 625 q 386 626 396 626 l 367 626 l 367 733 "},"Q":{"ha":1099,"x_min":38,"x_max":1172,"o":"m 628 6 l 892 -214 l 1172 -214 l 865 82 q 1012 254 969 149 q 1054 489 1054 360 q 1014 677 1054 589 q 905 831 974 765 q 743 934 836 896 q 544 972 650 972 q 348 934 440 972 q 187 831 256 896 q 78 677 118 765 q 38 489 38 589 q 78 300 38 389 q 187 146 118 211 q 348 42 256 81 q 544 4 440 4 q 562 4 550 4 q 586 4 574 4 q 610 5 599 4 q 628 6 622 6 m 335 489 q 351 572 335 533 q 397 640 368 611 q 465 686 426 669 q 549 703 504 703 q 630 686 593 703 q 693 640 667 669 q 734 572 719 611 q 749 489 749 533 q 734 406 749 444 q 693 338 719 367 q 630 292 667 308 q 549 275 593 275 q 465 292 504 275 q 397 338 426 308 q 351 406 368 367 q 335 489 335 444 "},"R":{"ha":875,"x_min":78,"x_max":829,"o":"m 367 440 l 583 3 l 829 3 l 606 453 q 668 487 636 463 q 726 544 700 511 q 769 616 753 578 q 786 690 786 654 q 758 824 788 771 q 678 910 728 878 q 564 954 629 942 q 429 967 499 967 l 78 967 l 78 4 l 367 4 l 367 440 m 367 733 l 429 733 q 453 733 438 733 q 483 728 468 732 q 510 714 499 724 q 521 686 521 704 q 510 656 521 667 q 485 638 500 644 q 453 628 469 631 q 425 625 438 625 q 406 626 415 625 q 386 626 396 626 l 367 626 l 367 733 "},"S":{"ha":914,"x_min":58,"x_max":871,"o":"m 64 300 l 64 11 l 529 11 q 678 42 614 13 q 785 117 742 71 q 849 223 828 164 q 871 343 871 282 q 858 460 871 404 q 809 557 846 515 q 705 624 772 599 q 528 649 638 649 l 343 649 q 326 662 332 653 q 319 681 319 671 q 326 699 319 692 q 349 707 333 707 l 836 707 l 836 968 l 349 968 q 221 946 275 968 q 131 885 167 924 q 76 797 94 847 q 58 688 58 746 q 77 572 58 629 q 132 472 96 515 q 223 401 168 428 q 349 374 278 374 l 528 374 q 569 364 556 374 q 582 343 582 354 q 567 315 582 328 q 525 300 553 301 l 64 300 "},"T":{"ha":774,"x_min":68,"x_max":697,"o":"m 253 694 l 253 0 l 513 0 l 513 693 l 697 693 l 697 972 l 68 972 l 68 694 l 253 694 "},"U":{"ha":1157,"x_min":69,"x_max":953,"o":"m 951 507 l 953 972 l 644 972 l 642 504 q 633 383 643 431 q 603 306 622 335 q 558 266 585 278 q 501 254 532 254 q 449 266 472 254 q 410 306 426 278 q 385 383 393 335 q 376 504 376 431 l 376 972 l 69 972 l 69 507 q 98 311 69 403 q 182 151 126 219 q 318 44 238 83 q 503 4 399 4 q 690 44 607 4 q 831 151 774 83 q 920 311 889 219 q 951 507 951 403 "},"W":{"ha":1489,"x_min":38,"x_max":1443,"o":"m 38 972 l 496 0 l 740 418 l 989 0 l 1443 967 l 1111 967 l 944 626 l 749 967 l 533 626 l 365 972 l 38 972 "},"X":{"ha":1174,"x_min":51,"x_max":1092,"o":"m 365 488 l 56 0 l 461 0 l 571 171 l 682 0 l 1092 0 l 774 490 l 1082 974 l 676 974 l 569 806 l 461 974 l 51 974 l 365 488 "},"Y":{"ha":1090,"x_min":28,"x_max":1050,"o":"m 401 478 l 401 0 l 658 0 l 658 475 l 1050 972 l 722 972 l 539 685 l 356 972 l 28 972 l 401 478 "},"Z":{"ha":1115,"x_min":61,"x_max":1043,"o":"m 550 739 l 75 0 l 1040 0 l 1040 257 l 599 257 l 1043 972 l 61 972 l 61 739 l 550 739 "},"a":{"ha":1093,"x_min":28,"x_max":1050,"o":"m 542 972 l 28 0 l 356 0 l 539 343 l 722 0 l 1050 0 l 542 972 "},"b":{"ha":875,"x_min":78,"x_max":806,"o":"m 429 967 l 78 967 l 78 4 l 461 4 q 633 33 557 1 q 697 69 665 47 q 752 126 728 92 q 791 207 776 160 q 806 319 806 254 q 766 464 806 408 q 646 519 726 519 q 695 532 671 519 q 740 567 719 544 q 773 620 760 589 q 786 690 786 651 q 758 824 788 771 q 678 910 728 878 q 564 954 629 942 q 429 967 499 967 m 367 338 l 385 338 l 390 338 l 399 338 q 497 324 458 335 q 536 276 536 313 q 526 247 536 257 q 506 231 517 236 q 475 224 492 225 l 367 224 l 367 338 m 367 733 l 429 733 q 453 733 438 733 q 483 728 468 732 q 510 714 499 724 q 521 686 521 704 q 510 656 521 667 q 485 638 500 644 q 453 628 469 631 q 425 625 438 625 q 406 626 415 625 q 386 626 396 626 l 367 626 l 367 733 "},"c":{"ha":725,"x_min":53,"x_max":672,"o":"m 538 0 l 672 0 l 672 275 l 551 275 q 470 292 508 275 q 404 336 432 308 q 360 402 376 364 q 343 483 343 440 q 360 565 343 526 q 404 631 376 603 q 470 676 432 660 q 551 693 508 693 l 669 693 l 669 971 l 538 971 q 349 933 438 971 q 194 828 260 894 q 91 674 129 763 q 53 483 53 585 q 91 295 53 383 q 194 141 129 207 q 349 38 260 75 q 538 0 438 0 "},"d":{"ha":1043,"x_min":79,"x_max":978,"o":"m 79 972 l 79 0 l 493 0 q 682 38 593 0 q 836 141 771 75 q 940 295 901 207 q 978 483 978 383 q 940 674 978 585 q 836 828 901 763 q 682 933 771 894 q 493 971 593 971 l 79 972 m 360 693 l 479 693 q 560 676 522 693 q 626 631 599 660 q 671 565 654 603 q 688 483 688 526 q 671 402 688 440 q 626 336 654 364 q 560 292 599 308 q 479 275 522 275 l 360 275 l 360 693 "},"e":{"ha":774,"x_min":68,"x_max":700,"o":"m 347 693 l 697 693 l 697 971 l 68 972 l 68 1 l 700 0 l 700 275 l 347 275 l 347 347 l 697 347 l 697 625 l 347 625 l 347 693 "},"f":{"ha":774,"x_min":68,"x_max":697,"o":"m 347 693 l 697 693 l 697 971 l 68 972 l 68 1 l 346 0 l 347 347 l 697 347 l 697 625 l 347 625 l 347 693 "},"g":{"ha":874,"x_min":53,"x_max":825,"o":"m 538 0 l 825 0 l 825 486 l 556 486 l 556 275 q 472 292 511 275 q 405 336 433 308 q 360 402 376 364 q 343 483 343 440 q 360 565 343 526 q 404 631 376 603 q 470 676 432 660 q 551 693 508 693 l 669 693 l 669 971 l 538 971 q 349 933 438 971 q 194 828 260 894 q 91 674 129 763 q 53 483 53 585 q 91 295 53 383 q 194 141 129 207 q 349 38 260 75 q 538 0 438 0 "},"h":{"ha":942,"x_min":53,"x_max":893,"o":"m 578 347 l 578 0 l 893 0 l 893 972 l 578 972 l 578 625 l 368 625 l 368 972 l 53 972 l 53 0 l 368 0 l 368 347 l 578 347 "},"i":{"ha":424,"x_min":53,"x_max":368,"o":"m 53 972 l 53 0 l 368 0 l 368 972 l 53 972 "},"j":{"ha":424,"x_min":-156,"x_max":369,"o":"m 369 -4 l 368 972 l 53 972 l 53 10 q 45 -72 53 -33 q 15 -137 38 -110 q -48 -182 -7 -165 q -156 -199 -89 -199 l -156 -489 q 66 -451 -32 -489 q 231 -347 164 -412 q 334 -193 299 -282 q 369 -4 369 -104 "},"k":{"ha":926,"x_min":53,"x_max":871,"o":"m 340 188 l 528 0 l 871 0 l 396 476 l 867 972 l 524 972 l 340 779 l 340 972 l 53 972 l 53 0 l 340 0 l 340 188 "},"l":{"ha":774,"x_min":68,"x_max":700,"o":"m 347 974 l 68 972 l 68 1 l 700 0 l 700 275 l 347 275 l 347 974 "},"m":{"ha":1489,"x_min":38,"x_max":1443,"o":"m 496 972 l 38 0 l 365 0 l 533 346 l 749 6 l 944 346 l 1111 6 l 1443 6 l 989 972 l 740 554 l 496 972 "},"n":{"ha":942,"x_min":82,"x_max":850,"o":"m 82 972 l 85 0 l 413 0 l 408 346 l 849 1 l 850 975 l 551 972 l 551 572 l 82 972 "},"o":{"ha":1099,"x_min":38,"x_max":1054,"o":"m 38 489 q 78 300 38 389 q 187 146 118 211 q 348 42 256 81 q 544 4 440 4 q 743 42 650 4 q 905 146 836 81 q 1014 300 974 211 q 1054 489 1054 389 q 1014 677 1054 589 q 905 831 974 765 q 743 934 836 896 q 544 972 650 972 q 348 934 440 972 q 187 831 256 896 q 78 677 118 765 q 38 489 38 589 m 335 489 q 351 572 335 533 q 397 640 368 611 q 465 686 426 669 q 549 703 504 703 q 630 686 593 703 q 693 640 667 669 q 734 572 719 611 q 749 489 749 533 q 734 406 749 444 q 693 338 719 367 q 630 292 667 308 q 549 275 593 275 q 465 292 504 275 q 397 338 426 308 q 351 406 368 367 q 335 489 335 444 "},"p":{"ha":875,"x_min":78,"x_max":788,"o":"m 429 967 l 78 967 l 78 4 l 367 4 l 367 449 l 575 449 q 645 471 608 449 q 713 528 682 493 q 765 607 744 564 q 786 690 786 650 q 758 824 788 771 q 678 910 728 878 q 564 954 629 942 q 429 967 499 967 m 367 733 l 429 733 q 453 733 438 733 q 483 728 468 732 q 510 714 499 724 q 521 686 521 704 q 510 656 521 667 q 485 638 500 644 q 453 628 469 631 q 425 625 438 625 q 406 626 415 625 q 386 626 396 626 l 367 626 l 367 733 "},"q":{"ha":1099,"x_min":38,"x_max":1172,"o":"m 628 6 l 892 -214 l 1172 -214 l 865 82 q 1012 254 969 149 q 1054 489 1054 360 q 1014 677 1054 589 q 905 831 974 765 q 743 934 836 896 q 544 972 650 972 q 348 934 440 972 q 187 831 256 896 q 78 677 118 765 q 38 489 38 589 q 78 300 38 389 q 187 146 118 211 q 348 42 256 81 q 544 4 440 4 q 562 4 550 4 q 586 4 574 4 q 610 5 599 4 q 628 6 622 6 m 335 489 q 351 572 335 533 q 397 640 368 611 q 465 686 426 669 q 549 703 504 703 q 630 686 593 703 q 693 640 667 669 q 734 572 719 611 q 749 489 749 533 q 734 406 749 444 q 693 338 719 367 q 630 292 667 308 q 549 275 593 275 q 465 292 504 275 q 397 338 426 308 q 351 406 368 367 q 335 489 335 444 "},"r":{"ha":875,"x_min":78,"x_max":829,"o":"m 367 440 l 583 3 l 829 3 l 606 453 q 668 487 636 463 q 726 544 700 511 q 769 616 753 578 q 786 690 786 654 q 758 824 788 771 q 678 910 728 878 q 564 954 629 942 q 429 967 499 967 l 78 967 l 78 4 l 367 4 l 367 440 m 367 733 l 429 733 q 453 733 438 733 q 483 728 468 732 q 510 714 499 724 q 521 686 521 704 q 510 656 521 667 q 485 638 500 644 q 453 628 469 631 q 425 625 438 625 q 406 626 415 625 q 386 626 396 626 l 367 626 l 367 733 "},"s":{"ha":914,"x_min":58,"x_max":871,"o":"m 64 300 l 64 11 l 529 11 q 678 42 614 13 q 785 117 742 71 q 849 223 828 164 q 871 343 871 282 q 858 460 871 404 q 809 557 846 515 q 705 624 772 599 q 528 649 638 649 l 343 649 q 326 662 332 653 q 319 681 319 671 q 326 699 319 692 q 349 707 333 707 l 836 707 l 836 968 l 349 968 q 221 946 275 968 q 131 885 167 924 q 76 797 94 847 q 58 688 58 746 q 77 572 58 629 q 132 472 96 515 q 223 401 168 428 q 349 374 278 374 l 528 374 q 569 364 556 374 q 582 343 582 354 q 567 315 582 328 q 525 300 553 301 l 64 300 "},"t":{"ha":774,"x_min":68,"x_max":697,"o":"m 253 694 l 253 0 l 513 0 l 513 693 l 697 693 l 697 972 l 68 972 l 68 694 l 253 694 "},"u":{"ha":1157,"x_min":69,"x_max":953,"o":"m 951 507 l 953 972 l 644 972 l 642 504 q 633 383 643 431 q 603 306 622 335 q 558 266 585 278 q 501 254 532 254 q 449 266 472 254 q 410 306 426 278 q 385 383 393 335 q 376 504 376 431 l 376 972 l 69 972 l 69 507 q 98 311 69 403 q 182 151 126 219 q 318 44 238 83 q 503 4 399 4 q 690 44 607 4 q 831 151 774 83 q 920 311 889 219 q 951 507 951 403 "},"v":{"ha":1090,"x_min":28,"x_max":1050,"o":"m 28 972 l 542 0 l 1050 972 l 722 972 l 539 629 l 356 972 l 28 972 "},"w":{"ha":1489,"x_min":38,"x_max":1443,"o":"m 38 972 l 496 0 l 740 418 l 989 0 l 1443 967 l 1111 967 l 944 626 l 749 967 l 533 626 l 365 972 l 38 972 "},"x":{"ha":1174,"x_min":51,"x_max":1092,"o":"m 365 488 l 56 0 l 461 0 l 571 171 l 682 0 l 1092 0 l 774 490 l 1082 974 l 676 974 l 569 806 l 461 974 l 51 974 l 365 488 "},"y":{"ha":1090,"x_min":28,"x_max":1050,"o":"m 401 478 l 401 0 l 658 0 l 658 475 l 1050 972 l 722 972 l 539 685 l 356 972 l 28 972 l 401 478 "},"z":{"ha":1115,"x_min":61,"x_max":1043,"o":"m 550 739 l 75 0 l 1040 0 l 1040 257 l 599 257 l 1043 972 l 61 972 l 61 739 l 550 739 "},"|":{"ha":343,"x_min":81,"x_max":271,"o":"m 81 972 l 81 -292 l 271 -292 l 271 972 l 81 972 "},"$":{"ha":914,"x_min":58,"x_max":871,"o":"m 64 300 l 64 11 l 367 11 l 367 -178 l 557 -178 l 557 13 q 693 49 635 18 q 791 125 751 79 q 851 228 831 171 q 871 343 871 285 q 859 455 871 401 q 813 550 847 508 q 718 617 779 592 q 557 647 657 643 l 557 707 l 836 707 l 836 968 l 557 968 l 557 1086 l 367 1086 l 367 968 l 349 968 q 221 946 275 968 q 131 885 167 924 q 76 797 94 847 q 58 688 58 746 q 77 572 58 629 q 132 472 96 515 q 223 401 168 428 q 349 374 278 374 l 367 374 l 367 300 l 64 300 m 349 707 l 367 707 l 367 649 l 343 649 q 326 662 332 653 q 319 681 319 671 q 326 699 319 692 q 349 707 333 707 m 582 343 q 557 307 582 319 l 557 369 q 582 343 582 361 "},"%":{"ha":1099,"x_min":38,"x_max":1022,"o":"m 38 757 q 56 673 38 713 q 104 604 74 633 q 176 558 135 575 q 263 542 217 542 q 351 558 310 542 q 424 604 393 575 q 472 673 454 633 q 489 757 489 713 q 472 841 489 801 q 424 910 454 881 q 351 956 393 939 q 263 972 310 972 q 176 956 217 972 q 104 910 135 939 q 56 841 74 881 q 38 757 38 801 m 169 757 q 197 825 169 797 q 265 853 225 853 q 329 825 304 853 q 354 757 354 797 q 329 690 354 717 q 265 663 304 663 q 197 690 225 663 q 169 757 169 717 m 571 218 q 589 134 571 174 q 638 65 607 94 q 709 19 668 36 q 796 3 750 3 q 885 19 843 3 q 957 65 926 36 q 1005 134 988 94 q 1022 218 1022 174 q 1005 302 1022 263 q 957 371 988 342 q 885 417 926 400 q 796 433 843 433 q 709 417 750 433 q 638 371 668 400 q 589 302 607 342 q 571 218 571 263 m 703 218 q 731 286 703 258 q 799 314 758 314 q 863 286 838 314 q 888 218 888 258 q 863 151 888 178 q 799 124 838 124 q 731 151 758 124 q 703 218 703 178 m 728 972 l 140 0 l 340 0 l 928 972 l 728 972 "},"\\":{"ha":581,"x_min":81,"x_max":532,"o":"m 81 972 l 342 0 l 532 0 l 271 972 l 81 972 "},"/":{"ha":581,"x_min":81,"x_max":532,"o":"m 271 0 l 532 972 l 342 972 l 81 0 l 271 0 "},".":{"ha":474,"x_min":104,"x_max":382,"o":"m 104 140 q 144 42 104 82 q 243 1 185 1 q 342 42 301 1 q 382 140 382 82 q 342 239 382 199 q 243 279 301 279 q 144 239 185 279 q 104 140 104 199 "},"-":{"ha":510,"x_min":68,"x_max":443,"o":"m 443 643 l 68 643 l 68 453 l 443 453 l 443 643 "},"–":{"ha":781,"x_min":68,"x_max":713,"o":"m 713 643 l 68 643 l 68 453 l 713 453 l 713 643 "},"—":{"ha":1231,"x_min":68,"x_max":1158,"o":"m 1158 643 l 68 643 l 68 453 l 1158 453 l 1158 643 "},"•":{"ha":542,"x_min":97,"x_max":444,"o":"m 97 442 q 111 374 97 406 q 149 319 125 343 q 203 282 172 296 q 271 268 235 268 q 338 282 307 268 q 393 319 369 296 q 431 374 417 343 q 444 442 444 406 q 431 509 444 478 q 393 564 417 540 q 338 601 369 588 q 271 615 307 615 q 203 601 235 615 q 149 564 172 588 q 111 509 125 540 q 97 442 97 478 "},"{":{"ha":782,"x_min":103,"x_max":675,"o":"m 675 1001 q 652 1001 671 1001 q 613 1002 633 1001 q 574 1003 592 1003 q 551 1003 556 1003 q 426 997 478 1003 q 340 969 374 992 q 291 901 307 946 q 275 778 275 856 l 275 606 q 241 477 275 514 q 128 440 207 440 q 115 441 124 440 q 103 442 107 442 l 103 278 q 116 278 107 278 q 128 279 125 279 q 242 242 208 279 q 275 115 275 206 l 275 -58 q 291 -183 275 -137 q 341 -249 307 -228 q 427 -276 375 -271 q 550 -282 479 -282 q 572 -282 554 -282 q 612 -281 590 -282 q 652 -281 633 -281 q 675 -281 671 -281 l 675 -117 q 660 -117 671 -117 q 646 -118 650 -118 q 591 -113 613 -118 q 557 -94 569 -108 q 540 -57 544 -81 q 535 4 535 -33 l 535 168 q 528 249 535 217 q 504 304 521 282 q 460 339 488 326 q 392 360 432 351 q 458 381 431 368 q 503 417 486 394 q 527 472 519 439 q 535 553 535 504 l 535 715 q 540 777 535 753 q 558 815 544 801 q 592 833 571 828 q 647 839 614 839 q 661 838 651 839 q 675 838 671 838 l 675 1001 "},"}":{"ha":782,"x_min":103,"x_max":675,"o":"m 103 1001 l 103 1001 l 103 838 q 117 838 107 838 q 131 839 126 839 q 185 833 164 839 q 220 815 207 828 q 238 777 233 801 q 243 715 243 753 l 243 553 q 251 472 243 504 q 275 417 258 439 q 319 381 292 394 q 386 360 346 368 q 318 339 346 351 q 274 304 290 326 q 250 249 257 282 q 243 168 243 217 l 243 4 q 238 -57 243 -33 q 221 -94 233 -81 q 187 -113 208 -108 q 132 -118 165 -118 q 117 -117 128 -118 q 103 -117 107 -117 l 103 -281 q 126 -281 107 -281 q 166 -281 144 -281 q 206 -282 188 -282 q 228 -282 224 -282 q 351 -276 299 -282 q 437 -249 403 -271 q 487 -183 471 -228 q 503 -58 503 -137 l 503 115 q 536 242 503 206 q 650 279 569 279 q 662 278 653 279 q 675 278 671 278 l 675 442 q 663 441 671 442 q 650 440 654 440 q 537 477 571 440 q 503 606 503 514 l 503 778 q 487 901 503 856 q 438 969 471 946 q 351 997 404 992 q 226 1003 299 1003 q 204 1003 222 1003 q 165 1002 186 1003 q 126 1001 144 1001 q 103 1001 107 1001 "},"[":{"ha":525,"x_min":78,"x_max":475,"o":"m 78 1049 l 78 -183 l 475 -183 l 475 10 l 319 10 l 319 856 l 475 856 l 475 1049 l 78 1049 "},"]":{"ha":525,"x_min":78,"x_max":475,"o":"m 475 -183 l 475 1049 l 78 1049 l 78 856 l 233 856 l 233 10 l 78 10 l 78 -183 l 475 -183 "},"(":{"ha":661,"x_min":94,"x_max":571,"o":"m 321 1049 q 94 432 94 772 q 321 -183 94 93 l 571 -183 q 426 116 474 -36 q 378 432 378 268 q 571 1049 378 756 l 321 1049 "},")":{"ha":661,"x_min":94,"x_max":571,"o":"m 344 1049 l 344 1049 l 94 1049 q 288 432 288 756 q 240 116 288 268 q 94 -183 192 -36 l 344 -183 q 571 432 571 93 q 344 1049 571 772 "},"*":{"ha":713,"x_min":44,"x_max":650,"o":"m 261 1040 l 310 803 l 96 919 l 44 758 l 285 728 l 108 561 l 244 463 l 347 686 l 450 463 l 586 561 l 410 728 l 650 758 l 599 919 l 386 803 l 433 1040 l 261 1040 "},"+":{"ha":985,"x_min":90,"x_max":903,"o":"m 417 828 l 417 493 l 90 493 l 90 336 l 417 336 l 417 0 l 578 0 l 578 336 l 903 336 l 903 493 l 578 493 l 578 828 l 417 828 "},",":{"ha":428,"x_min":35,"x_max":368,"o":"m 124 219 l 35 -151 l 232 -151 l 368 219 l 124 219 "},":":{"ha":474,"x_min":104,"x_max":382,"o":"m 104 140 q 144 42 104 82 q 243 1 185 1 q 342 42 301 1 q 382 140 382 82 q 342 239 382 199 q 243 279 301 279 q 144 239 185 279 q 104 140 104 199 m 104 619 q 144 521 104 561 q 243 481 185 481 q 342 521 301 481 q 382 619 382 561 q 342 718 382 678 q 243 758 301 758 q 144 718 185 758 q 104 619 104 678 "},";":{"ha":474,"x_min":35,"x_max":382,"o":"m 104 619 q 144 521 104 561 q 243 481 185 481 q 342 521 301 481 q 382 619 382 561 q 342 718 382 678 q 243 758 301 758 q 144 718 185 758 q 104 619 104 678 m 124 219 l 35 -151 l 232 -151 l 368 219 l 124 219 "},"<":{"ha":906,"x_min":46,"x_max":844,"o":"m 844 824 l 46 493 l 46 335 l 844 6 l 844 178 l 265 414 l 844 651 l 844 824 "},"=":{"ha":985,"x_min":83,"x_max":896,"o":"m 83 340 l 83 185 l 896 185 l 896 340 l 83 340 m 83 644 l 83 488 l 896 488 l 896 644 l 83 644 "},">":{"ha":917,"x_min":57,"x_max":856,"o":"m 57 824 l 57 651 l 636 414 l 57 178 l 57 6 l 856 335 l 856 493 l 57 824 "},"&":{"ha":1128,"x_min":38,"x_max":999,"o":"m 676 -33 l 999 -12 q 971 28 990 -1 q 927 94 951 57 q 878 169 903 131 q 833 236 853 207 q 857 268 839 243 q 896 322 875 293 q 935 375 917 350 q 958 407 954 400 l 847 446 q 828 449 843 451 q 792 439 813 446 q 749 423 772 432 q 706 407 726 414 q 671 397 686 400 q 651 399 656 393 q 710 476 672 433 q 783 564 747 519 q 844 649 818 608 q 871 721 871 690 q 851 828 871 779 q 788 912 831 876 q 681 967 746 947 q 526 986 615 986 q 378 976 444 986 q 263 938 311 965 q 188 863 214 911 q 161 742 161 815 q 167 694 161 713 q 186 658 174 676 q 217 615 199 639 q 257 554 235 592 q 167 504 208 531 q 96 442 125 478 q 52 360 67 407 q 42 247 38 313 q 72 135 46 183 q 140 53 99 86 q 238 4 182 21 q 358 -12 293 -12 q 482 4 417 -12 q 613 54 547 21 q 647 7 631 31 q 676 -33 664 -17 m 253 243 q 286 324 253 290 q 367 357 319 357 q 447 324 414 357 q 481 243 481 290 q 447 163 481 196 q 367 129 414 129 q 286 163 319 129 q 253 243 253 196 m 426 708 q 456 779 426 750 q 526 808 485 808 q 597 779 568 808 q 626 708 626 750 q 597 638 626 667 q 526 608 568 608 q 456 638 485 608 q 426 708 426 667 "},"ı":{"ha":424,"x_min":53,"x_max":368,"o":"m 53 972 l 53 0 l 368 0 l 368 972 l 53 972 "},"!":{"ha":424,"x_min":88,"x_max":365,"o":"m 113 972 l 113 343 l 343 343 l 343 972 l 113 972 m 88 140 q 128 42 88 82 q 226 1 168 1 q 325 42 285 1 q 365 140 365 82 q 325 239 365 199 q 226 279 285 279 q 128 239 168 279 q 88 140 88 199 "},"'":{"ha":357,"x_min":56,"x_max":301,"o":"m 56 975 l 56 594 l 301 594 l 301 975 l 56 975 "},"#":{"ha":1068,"x_min":15,"x_max":1053,"o":"m 479 571 l 646 571 l 590 414 l 424 414 l 479 571 m 464 994 l 368 728 l 179 728 l 121 571 l 313 571 l 257 415 l 74 415 l 15 258 l 201 258 l 107 -8 l 276 -8 l 372 258 l 532 258 l 438 -8 l 607 -8 l 703 258 l 889 258 l 946 415 l 758 415 l 813 571 l 994 571 l 1053 728 l 869 728 l 964 994 l 794 994 l 699 728 l 539 728 l 633 994 l 464 994 "},"\"":{"ha":683,"x_min":56,"x_max":629,"o":"m 56 975 l 56 594 l 301 594 l 301 975 l 56 975 m 383 975 l 383 594 l 629 594 l 629 975 l 383 975 "},"‘":{"ha":515,"x_min":56,"x_max":460,"o":"m 56 975 l 214 594 l 460 594 l 301 975 l 56 975 "},"’":{"ha":515,"x_min":56,"x_max":460,"o":"m 301 594 l 460 975 l 214 975 l 56 594 l 301 594 "},"“":{"ha":856,"x_min":56,"x_max":788,"o":"m 56 975 l 214 594 l 460 594 l 301 975 l 56 975 m 383 975 l 542 594 l 788 594 l 629 975 l 383 975 "},"”":{"ha":856,"x_min":56,"x_max":788,"o":"m 629 594 l 788 975 l 542 975 l 383 594 l 629 594 m 301 594 l 460 975 l 214 975 l 56 594 l 301 594 "},"™":{"ha":983,"x_min":68,"x_max":918,"o":"m 150 850 l 150 543 l 264 543 l 264 849 l 346 849 l 346 972 l 68 972 l 68 850 l 150 850 m 501 972 l 299 543 l 443 543 l 518 696 l 613 546 l 699 696 l 772 546 l 918 546 l 718 972 l 608 788 l 501 972 "},"˜":{"ha":694,"x_min":94,"x_max":600,"o":"m 492 1029 q 432 971 476 971 q 420 972 426 971 q 403 974 414 972 q 374 981 392 976 q 329 994 357 986 q 295 1001 311 1000 q 265 1003 279 1003 q 163 952 211 1003 q 94 811 115 901 l 203 811 q 226 851 210 840 q 265 863 243 863 q 303 857 283 863 q 344 845 324 851 q 385 834 365 839 q 424 829 406 829 q 531 883 482 829 q 600 1029 579 938 l 492 1029 "},"‹":{"ha":489,"x_min":40,"x_max":431,"o":"m 200 651 l 40 368 l 199 85 l 428 85 l 283 368 l 431 651 l 200 651 "},"‰":{"ha":1625,"x_min":38,"x_max":1554,"o":"m 38 757 q 56 673 38 713 q 104 604 74 633 q 176 558 135 575 q 263 542 217 542 q 351 558 310 542 q 424 604 393 575 q 472 673 454 633 q 489 757 489 713 q 472 841 489 801 q 424 910 454 881 q 351 956 393 939 q 263 972 310 972 q 176 956 217 972 q 104 910 135 939 q 56 841 74 881 q 38 757 38 801 m 169 757 q 197 825 169 797 q 265 853 225 853 q 329 825 304 853 q 354 757 354 797 q 329 690 354 717 q 265 663 304 663 q 197 690 225 663 q 169 757 169 717 m 571 218 q 589 134 571 174 q 638 65 607 94 q 709 19 668 36 q 796 3 750 3 q 885 19 843 3 q 957 65 926 36 q 1005 134 988 94 q 1022 218 1022 174 q 1005 302 1022 263 q 957 371 988 342 q 885 417 926 400 q 796 433 843 433 q 709 417 750 433 q 638 371 668 400 q 589 302 607 342 q 571 218 571 263 m 703 218 q 731 286 703 258 q 799 314 758 314 q 863 286 838 314 q 888 218 888 258 q 863 151 888 178 q 799 124 838 124 q 731 151 758 124 q 703 218 703 178 m 728 972 l 140 0 l 340 0 l 928 972 l 728 972 m 1103 218 q 1121 134 1103 174 q 1169 65 1139 94 q 1241 19 1200 36 q 1328 3 1282 3 q 1417 19 1375 3 q 1489 65 1458 36 q 1537 134 1519 94 q 1554 218 1554 174 q 1537 302 1554 263 q 1489 371 1519 342 q 1417 417 1458 400 q 1328 433 1375 433 q 1241 417 1282 433 q 1169 371 1200 400 q 1121 302 1139 342 q 1103 218 1103 263 m 1235 218 q 1263 286 1235 258 q 1331 314 1290 314 q 1394 286 1369 314 q 1419 218 1419 258 q 1394 151 1419 178 q 1331 124 1369 124 q 1263 151 1290 124 q 1235 218 1235 178 "},"¡":{"ha":424,"x_min":76,"x_max":354,"o":"m 101 -276 l 101 353 l 332 353 l 332 -276 l 101 -276 m 76 556 q 117 654 76 614 q 215 694 157 694 q 314 654 274 694 q 354 556 354 614 q 314 457 354 497 q 215 417 274 417 q 117 457 157 417 q 76 556 76 497 "},"?":{"ha":774,"x_min":67,"x_max":688,"o":"m 464 318 l 464 328 q 467 367 464 349 q 482 405 471 385 q 513 450 493 425 q 564 508 532 475 q 655 626 622 571 q 688 749 688 682 q 601 924 688 861 q 360 988 515 988 q 67 949 204 988 l 75 722 q 176 758 135 746 q 267 769 218 769 q 376 754 338 769 q 414 688 414 739 q 335 539 414 635 q 285 477 306 503 q 254 428 265 451 q 238 380 243 406 q 232 318 232 354 l 464 318 m 219 140 q 260 239 219 199 q 358 279 300 279 q 457 239 417 279 q 497 140 497 199 q 457 42 497 82 q 358 1 417 1 q 260 42 300 1 q 219 140 219 82 "},"¿":{"ha":774,"x_min":58,"x_max":679,"o":"m 282 376 l 282 367 q 279 328 282 346 q 264 290 275 310 q 233 244 253 269 q 182 186 214 219 q 91 68 124 124 q 58 -54 58 13 q 144 -230 58 -167 q 386 -293 231 -293 q 679 -254 542 -293 l 671 -28 q 569 -63 611 -51 q 479 -75 528 -75 q 370 -60 408 -75 q 332 7 332 -44 q 411 156 332 60 q 460 217 440 192 q 492 266 481 243 q 508 315 503 289 q 514 376 514 340 l 282 376 m 526 554 q 486 456 526 496 q 388 415 446 415 q 289 456 329 415 q 249 554 249 496 q 289 653 249 613 q 388 693 329 693 q 486 653 446 693 q 526 554 526 613 "},"¢":{"ha":814,"x_min":60,"x_max":751,"o":"m 522 56 l 751 56 l 751 263 l 528 263 l 614 578 l 615 578 l 615 576 l 751 576 l 751 785 l 669 785 l 717 960 l 526 960 l 479 785 q 314 747 390 778 q 181 667 238 717 q 92 555 125 618 q 60 419 60 492 q 124 232 60 315 q 296 101 189 149 l 219 -181 l 410 -181 l 474 57 q 497 56 485 56 q 522 56 510 56 m 336 419 q 358 490 336 457 q 415 546 379 524 l 361 343 q 336 419 336 376 "},"£":{"ha":856,"x_min":100,"x_max":786,"o":"m 786 964 q 692 982 736 976 q 610 988 649 988 q 444 961 518 988 q 316 889 369 935 q 233 781 263 843 q 204 649 204 719 l 204 618 l 121 618 l 121 438 l 204 438 l 204 183 l 100 183 l 100 0 l 774 0 l 774 183 l 469 183 l 469 438 l 672 438 l 672 618 l 469 618 l 469 635 q 518 736 469 694 q 658 778 567 778 q 778 756 729 778 l 786 964 "},"¥":{"ha":1090,"x_min":28,"x_max":1050,"o":"m 949 99 l 949 254 l 658 254 l 658 401 l 949 401 l 949 558 l 724 558 l 1050 972 l 722 972 l 539 685 l 356 972 l 28 972 l 340 558 l 136 558 l 136 401 l 401 401 l 401 254 l 136 254 l 136 99 l 401 99 l 401 0 l 658 0 l 658 99 l 949 99 "},"ƒ":{"ha":1060,"x_min":54,"x_max":1006,"o":"m 1006 1056 l 792 1056 q 570 998 651 1056 q 467 813 489 940 l 458 760 l 338 760 l 307 586 l 428 586 l 321 -46 q 289 -110 313 -92 q 215 -129 265 -129 l 81 -129 l 54 -289 l 240 -289 q 474 -231 378 -289 q 592 -46 569 -174 l 699 586 l 906 586 l 936 760 l 729 760 l 738 813 q 769 877 746 858 q 844 896 793 896 l 979 896 l 1006 1056 "},"¦":{"ha":343,"x_min":81,"x_max":271,"o":"m 81 243 l 81 -292 l 271 -292 l 271 243 l 81 243 m 271 476 l 271 972 l 81 972 l 81 476 l 271 476 "},"§":{"ha":868,"x_min":76,"x_max":789,"o":"m 700 771 l 700 964 q 442 1006 564 1006 q 215 946 296 1006 q 133 782 133 886 q 151 695 133 733 q 211 624 169 657 q 108 534 140 586 q 76 411 76 482 q 135 253 76 319 q 332 128 193 188 l 331 128 q 350 118 340 122 q 368 110 360 114 q 390 100 382 104 q 457 64 432 81 q 482 31 482 47 q 460 -2 482 10 q 401 -14 439 -14 q 299 2 365 -14 q 144 50 233 18 l 144 -149 q 285 -180 221 -169 q 411 -190 349 -190 q 651 -131 565 -190 q 736 38 736 -71 q 654 190 736 131 q 757 279 725 226 q 789 411 789 332 q 775 494 789 457 q 731 563 761 531 q 650 626 700 596 q 529 689 600 657 l 531 689 q 522 694 528 692 q 508 699 515 696 l 492 707 q 412 749 439 733 q 385 783 385 765 q 471 832 385 832 q 700 771 542 832 m 382 529 l 379 528 q 530 457 486 490 q 574 382 574 424 q 493 289 574 315 q 395 328 433 311 q 335 363 357 346 q 306 397 314 379 q 297 435 297 414 q 382 529 297 494 "},"©":{"ha":1138,"x_min":75,"x_max":1081,"o":"m 578 903 q 731 871 658 903 q 859 784 804 839 q 946 656 914 729 q 978 503 978 583 q 947 350 978 422 q 861 223 915 278 q 734 136 807 168 q 578 104 661 104 q 422 136 494 104 q 294 223 349 168 q 209 350 240 278 q 178 503 178 422 q 210 656 178 583 q 296 784 242 729 q 423 871 350 839 q 578 903 496 903 m 578 1007 q 384 967 475 1007 q 224 858 293 926 q 115 697 156 789 q 75 503 75 606 q 115 309 75 400 q 224 149 156 218 q 384 40 293 81 q 578 0 475 0 q 771 40 679 0 q 931 149 863 81 q 1040 309 1000 218 q 1081 503 1081 400 q 1040 697 1081 606 q 931 858 1000 789 q 771 967 863 926 q 578 1007 679 1007 m 714 207 l 629 207 q 511 231 567 207 q 415 295 456 254 q 350 392 374 336 q 326 510 326 447 q 350 629 326 574 q 415 726 374 685 q 511 792 456 768 q 629 815 567 815 l 713 815 l 713 642 l 638 642 q 586 631 610 642 q 545 603 563 621 q 517 560 528 585 q 507 510 507 536 q 517 458 507 482 q 545 417 528 435 q 586 390 563 400 q 638 379 610 379 l 714 379 l 714 207 "},"®":{"ha":1138,"x_min":75,"x_max":1081,"o":"m 578 903 q 731 871 658 903 q 859 784 804 839 q 946 656 914 729 q 978 503 978 583 q 947 350 978 422 q 861 223 915 278 q 734 136 807 168 q 578 104 661 104 q 422 136 494 104 q 294 223 349 168 q 209 350 240 278 q 178 503 178 422 q 210 656 178 583 q 296 784 242 729 q 423 871 350 839 q 578 903 496 903 m 578 1007 q 384 967 475 1007 q 224 858 293 926 q 115 697 156 789 q 75 503 75 606 q 115 309 75 400 q 224 149 156 218 q 384 40 293 81 q 578 0 475 0 q 771 40 679 0 q 931 149 863 81 q 1040 309 1000 218 q 1081 503 1081 400 q 1040 697 1081 606 q 931 858 1000 789 q 771 967 863 926 q 578 1007 679 1007 m 672 207 l 536 482 l 536 208 l 354 208 l 354 815 l 575 815 q 660 807 619 815 q 733 779 701 799 q 783 726 764 760 q 801 640 801 692 q 790 593 801 617 q 763 549 779 569 q 726 512 746 528 q 686 490 706 496 l 828 207 l 672 207 m 575 668 l 536 668 l 536 600 l 549 600 l 574 600 q 591 601 581 600 q 610 607 601 603 q 626 619 619 611 q 633 639 633 626 q 626 656 633 650 q 610 665 619 663 q 590 668 600 668 q 575 668 581 668 "},"›":{"ha":489,"x_min":40,"x_max":431,"o":"m 431 368 l 271 651 l 40 651 l 188 368 l 43 85 l 272 85 l 431 368 "},"«":{"ha":810,"x_min":40,"x_max":765,"o":"m 200 651 l 40 368 l 199 85 l 428 85 l 283 368 l 431 651 l 200 651 m 535 651 l 375 368 l 533 85 l 763 85 l 618 368 l 765 651 l 535 651 "},"»":{"ha":810,"x_min":40,"x_max":765,"o":"m 765 368 l 606 651 l 375 651 l 522 368 l 378 85 l 607 85 l 765 368 m 431 368 l 271 651 l 40 651 l 188 368 l 43 85 l 272 85 l 431 368 "},"ˆ":{"ha":694,"x_min":92,"x_max":603,"o":"m 265 1111 l 92 856 l 213 856 l 347 1008 l 482 856 l 603 856 l 429 1111 l 265 1111 "},"†":{"ha":694,"x_min":36,"x_max":653,"o":"m 232 1013 l 232 754 l 36 754 l 36 593 l 232 593 l 232 -133 l 456 -133 l 456 593 l 653 593 l 653 754 l 456 754 l 456 1013 l 232 1013 "},"‡":{"ha":694,"x_min":35,"x_max":653,"o":"m 232 1013 l 232 754 l 36 754 l 36 593 l 232 593 l 232 286 l 35 286 l 35 125 l 232 125 l 232 -133 l 456 -133 l 456 125 l 653 125 l 653 286 l 456 286 l 456 593 l 653 593 l 653 754 l 456 754 l 456 1013 l 232 1013 "},"…":{"ha":1421,"x_min":104,"x_max":1329,"o":"m 104 140 q 144 42 104 82 q 243 1 185 1 q 342 42 301 1 q 382 140 382 82 q 342 239 382 199 q 243 279 301 279 q 144 239 185 279 q 104 140 104 199 m 578 140 q 618 42 578 82 q 717 1 658 1 q 815 42 775 1 q 856 140 856 82 q 815 239 856 199 q 717 279 775 279 q 618 239 658 279 q 578 140 578 199 m 1051 140 q 1092 42 1051 82 q 1190 1 1132 1 q 1289 42 1249 1 q 1329 140 1329 82 q 1289 239 1329 199 q 1190 279 1249 279 q 1092 239 1132 279 q 1051 140 1051 199 "},"‚":{"ha":493,"x_min":56,"x_max":460,"o":"m 301 -181 l 460 200 l 214 200 l 56 -181 l 301 -181 "},"„":{"ha":838,"x_min":56,"x_max":781,"o":"m 301 -181 l 460 200 l 214 200 l 56 -181 l 301 -181 m 622 -181 l 781 200 l 535 200 l 376 -181 l 622 -181 "},"¨":{"ha":863,"x_min":104,"x_max":781,"o":"m 104 949 q 144 850 104 890 q 243 810 185 810 q 342 850 301 810 q 382 949 382 890 q 342 1047 382 1007 q 243 1088 301 1088 q 144 1047 185 1088 q 104 949 104 1007 m 503 949 q 543 850 503 890 q 642 810 583 810 q 740 850 700 810 q 781 949 781 890 q 740 1047 781 1007 q 642 1088 700 1088 q 543 1047 583 1088 q 503 949 503 1007 "},"±":{"ha":971,"x_min":67,"x_max":900,"o":"m 413 842 l 413 604 l 86 604 l 86 447 l 413 447 l 413 208 l 574 208 l 574 447 l 899 447 l 899 604 l 574 604 l 574 842 l 413 842 m 67 172 l 900 172 l 900 24 l 67 24 l 67 172 "},"−":{"ha":988,"x_min":90,"x_max":903,"o":"m 903 493 l 90 493 l 90 336 l 903 336 l 903 493 "},"°":{"ha":694,"x_min":121,"x_max":572,"o":"m 347 931 q 430 897 396 931 q 464 814 464 863 q 430 732 464 765 q 347 699 396 699 q 264 732 297 699 q 231 814 231 765 q 265 897 231 863 q 347 931 299 931 m 347 1040 q 258 1023 299 1040 q 186 975 217 1006 q 138 903 156 944 q 121 814 121 861 q 138 724 121 765 q 185 653 154 683 q 256 606 215 622 q 346 589 297 589 q 433 606 392 589 q 505 652 474 622 q 554 724 536 682 q 572 814 572 765 q 554 902 572 861 q 506 974 536 943 q 434 1022 475 1004 q 347 1040 393 1040 "},"€":{"ha":1021,"x_min":54,"x_max":954,"o":"m 954 56 l 954 265 q 707 158 842 158 q 469 324 536 158 l 672 324 l 732 456 l 442 456 q 440 478 440 467 q 440 497 440 489 q 440 533 440 521 q 442 557 440 546 l 776 557 l 835 689 l 469 689 q 707 853 531 853 q 954 746 843 853 l 954 956 q 674 1031 826 1031 q 374 944 494 1031 q 201 689 254 857 l 114 689 l 54 557 l 181 557 q 179 536 179 547 q 179 506 179 525 q 179 476 179 486 q 181 456 179 465 l 114 456 l 54 324 l 201 324 q 374 68 253 156 q 674 -19 494 -19 q 954 56 826 -19 "},"·":{"ha":372,"x_min":49,"x_max":326,"o":"m 49 504 q 89 406 49 446 q 188 365 129 365 q 286 406 246 365 q 326 504 326 446 q 286 603 326 563 q 188 643 246 643 q 89 603 129 643 q 49 504 49 563 "},"Œ":{"ha":1238,"x_min":38,"x_max":1174,"o":"m 821 693 l 1171 693 l 1171 971 l 544 972 q 348 934 440 972 q 187 831 256 896 q 78 677 118 765 q 38 489 38 589 q 77 301 38 389 q 185 147 117 213 q 346 42 254 81 q 542 4 438 4 l 542 1 l 1174 0 l 1174 275 l 821 275 l 821 347 l 1171 347 l 1171 625 l 821 625 l 821 693 m 335 489 q 351 570 335 532 q 395 638 367 608 q 461 684 424 667 q 542 703 499 701 l 542 275 q 461 293 499 276 q 395 339 424 310 q 351 406 367 368 q 335 489 335 444 "},"œ":{"ha":1238,"x_min":38,"x_max":1174,"o":"m 821 693 l 1171 693 l 1171 971 l 544 972 q 348 934 440 972 q 187 831 256 896 q 78 677 118 765 q 38 489 38 589 q 77 301 38 389 q 185 147 117 213 q 346 42 254 81 q 542 4 438 4 l 542 1 l 1174 0 l 1174 275 l 821 275 l 821 347 l 1171 347 l 1171 625 l 821 625 l 821 693 m 335 489 q 351 570 335 532 q 395 638 367 608 q 461 684 424 667 q 542 703 499 701 l 542 275 q 461 293 499 276 q 395 339 424 310 q 351 406 367 368 q 335 489 335 444 "},"Æ":{"ha":1476,"x_min":28,"x_max":1433,"o":"m 660 839 l 714 839 l 714 425 l 486 425 l 660 839 m 451 1013 l 28 0 l 307 0 l 407 238 l 714 238 l 714 0 l 1433 0 l 1433 225 l 975 225 l 975 401 l 1392 401 l 1392 654 l 975 654 l 975 788 l 1418 788 l 1418 1013 l 451 1013 "},"æ":{"ha":1476,"x_min":28,"x_max":1433,"o":"m 660 839 l 714 839 l 714 425 l 486 425 l 660 839 m 451 1013 l 28 0 l 307 0 l 407 238 l 714 238 l 714 0 l 1433 0 l 1433 225 l 975 225 l 975 401 l 1392 401 l 1392 654 l 975 654 l 975 788 l 1418 788 l 1418 1013 l 451 1013 "},"Ÿ":{"ha":1090,"x_min":28,"x_max":1050,"o":"m 401 478 l 401 0 l 658 0 l 658 475 l 1050 972 l 722 972 l 539 685 l 356 972 l 28 972 l 401 478 m 207 1226 q 247 1128 207 1168 q 346 1088 288 1088 q 444 1128 404 1088 q 485 1226 485 1168 q 444 1325 485 1285 q 346 1365 404 1365 q 247 1325 288 1365 q 207 1226 207 1285 m 606 1226 q 646 1128 606 1168 q 744 1088 686 1088 q 843 1128 803 1088 q 883 1226 883 1168 q 843 1325 883 1285 q 744 1365 803 1365 q 646 1325 686 1365 q 606 1226 606 1285 "},"Ä":{"ha":1093,"x_min":28,"x_max":1050,"o":"m 542 972 l 28 0 l 356 0 l 539 343 l 722 0 l 1050 0 l 542 972 m 208 1226 q 249 1128 208 1168 q 347 1088 289 1088 q 446 1128 406 1088 q 486 1226 486 1168 q 446 1325 486 1285 q 347 1365 406 1365 q 249 1325 289 1365 q 208 1226 208 1285 m 607 1226 q 647 1128 607 1168 q 746 1088 688 1088 q 844 1128 804 1088 q 885 1226 885 1168 q 844 1325 885 1285 q 746 1365 804 1365 q 647 1325 688 1365 q 607 1226 607 1285 "},"Ë":{"ha":774,"x_min":50,"x_max":726,"o":"m 347 693 l 697 693 l 697 971 l 68 972 l 68 1 l 700 0 l 700 275 l 347 275 l 347 347 l 697 347 l 697 625 l 347 625 l 347 693 m 50 1226 q 90 1128 50 1168 q 189 1088 131 1088 q 288 1128 247 1088 q 328 1226 328 1168 q 288 1325 328 1285 q 189 1365 247 1365 q 90 1325 131 1365 q 50 1226 50 1285 m 449 1226 q 489 1128 449 1168 q 588 1088 529 1088 q 686 1128 646 1088 q 726 1226 726 1168 q 686 1325 726 1285 q 588 1365 646 1365 q 489 1325 529 1365 q 449 1226 449 1285 "},"Ï":{"ha":424,"x_min":-125,"x_max":551,"o":"m 53 972 l 53 0 l 368 0 l 368 972 l 53 972 m -125 1226 q -85 1128 -125 1168 q 14 1088 -44 1088 q 113 1128 72 1088 q 153 1226 153 1168 q 113 1325 153 1285 q 14 1365 72 1365 q -85 1325 -44 1365 q -125 1226 -125 1285 m 274 1226 q 314 1128 274 1168 q 413 1088 354 1088 q 511 1128 471 1088 q 551 1226 551 1168 q 511 1325 551 1285 q 413 1365 471 1365 q 314 1325 354 1365 q 274 1226 274 1285 "},"Ö":{"ha":1099,"x_min":38,"x_max":1054,"o":"m 38 489 q 78 300 38 389 q 187 146 118 211 q 348 42 256 81 q 544 4 440 4 q 743 42 650 4 q 905 146 836 81 q 1014 300 974 211 q 1054 489 1054 389 q 1014 677 1054 589 q 905 831 974 765 q 743 934 836 896 q 544 972 650 972 q 348 934 440 972 q 187 831 256 896 q 78 677 118 765 q 38 489 38 589 m 335 489 q 351 572 335 533 q 397 640 368 611 q 465 686 426 669 q 549 703 504 703 q 630 686 593 703 q 693 640 667 669 q 734 572 719 611 q 749 489 749 533 q 734 406 749 444 q 693 338 719 367 q 630 292 667 308 q 549 275 593 275 q 465 292 504 275 q 397 338 426 308 q 351 406 368 367 q 335 489 335 444 m 211 1226 q 251 1128 211 1168 q 350 1088 292 1088 q 449 1128 408 1088 q 489 1226 489 1168 q 449 1325 489 1285 q 350 1365 408 1365 q 251 1325 292 1365 q 211 1226 211 1285 m 610 1226 q 650 1128 610 1168 q 749 1088 690 1088 q 847 1128 807 1088 q 888 1226 888 1168 q 847 1325 888 1285 q 749 1365 807 1365 q 650 1325 690 1365 q 610 1226 610 1285 "},"Ü":{"ha":1157,"x_min":69,"x_max":953,"o":"m 951 507 l 953 972 l 644 972 l 642 504 q 633 383 643 431 q 603 306 622 335 q 558 266 585 278 q 501 254 532 254 q 449 266 472 254 q 410 306 426 278 q 385 383 393 335 q 376 504 376 431 l 376 972 l 69 972 l 69 507 q 98 311 69 403 q 182 151 126 219 q 318 44 238 83 q 503 4 399 4 q 690 44 607 4 q 831 151 774 83 q 920 311 889 219 q 951 507 951 403 m 240 1226 q 281 1128 240 1168 q 379 1088 321 1088 q 478 1128 438 1088 q 518 1226 518 1168 q 478 1325 518 1285 q 379 1365 438 1365 q 281 1325 321 1365 q 240 1226 240 1285 m 639 1226 q 679 1128 639 1168 q 778 1088 719 1088 q 876 1128 836 1088 q 917 1226 917 1168 q 876 1325 917 1285 q 778 1365 836 1365 q 679 1325 719 1365 q 639 1226 639 1285 "},"´":{"ha":510,"x_min":56,"x_max":460,"o":"m 301 847 l 460 1075 l 214 1075 l 56 847 l 301 847 "},"`":{"ha":510,"x_min":56,"x_max":460,"o":"m 56 1075 l 214 847 l 460 847 l 301 1075 l 56 1075 "},"@":{"ha":1350,"x_min":92,"x_max":1290,"o":"m 700 728 l 397 156 l 590 156 l 699 357 l 806 156 l 842 57 l 868 57 q 1181 157 1072 57 q 1290 444 1290 257 q 1243 660 1290 563 q 1115 828 1196 758 q 928 938 1035 899 q 704 976 822 976 q 465 929 576 976 q 271 799 354 882 q 140 606 188 717 q 92 368 92 494 q 140 126 92 238 q 270 -67 188 15 q 465 -195 353 -149 q 704 -242 576 -242 q 908 -207 808 -242 q 1092 -106 1007 -172 l 1019 4 q 872 -82 957 -50 q 703 -114 788 -114 q 512 -76 600 -114 q 358 26 424 -39 q 256 178 293 90 q 218 368 218 267 q 255 554 218 467 q 358 708 292 642 q 515 812 424 774 q 714 850 606 850 q 883 821 801 850 q 1026 738 964 792 q 1126 609 1089 685 q 1164 442 1164 533 q 1116 266 1164 333 q 983 186 1068 199 l 982 186 l 700 728 "},"Ã":{"ha":1093,"x_min":28,"x_max":1050,"o":"m 542 972 l 28 0 l 356 0 l 539 343 l 722 0 l 1050 0 l 542 972 m 690 1307 q 631 1249 675 1249 q 619 1249 625 1249 q 601 1252 613 1250 q 573 1259 590 1254 q 528 1272 556 1264 q 494 1279 510 1278 q 464 1281 478 1281 q 362 1230 410 1281 q 293 1089 314 1179 l 401 1089 q 425 1129 408 1118 q 464 1140 442 1140 q 502 1135 482 1140 q 543 1123 522 1129 q 584 1112 564 1117 q 622 1107 604 1107 q 729 1161 681 1107 q 799 1307 778 1215 l 690 1307 "},"Â":{"ha":1093,"x_min":28,"x_max":1050,"o":"m 542 972 l 28 0 l 356 0 l 539 343 l 722 0 l 1050 0 l 542 972 m 464 1389 l 290 1133 l 411 1133 l 546 1286 l 681 1133 l 801 1133 l 628 1389 l 464 1389 "},"Á":{"ha":1093,"x_min":28,"x_max":1050,"o":"m 542 972 l 28 0 l 356 0 l 539 343 l 722 0 l 1050 0 l 542 972 m 590 1125 l 749 1353 l 503 1353 l 344 1125 l 590 1125 "},"À":{"ha":1093,"x_min":28,"x_max":1050,"o":"m 542 972 l 28 0 l 356 0 l 539 343 l 722 0 l 1050 0 l 542 972 m 344 1353 l 503 1125 l 749 1125 l 590 1353 l 344 1353 "},"È":{"ha":774,"x_min":68,"x_max":700,"o":"m 347 693 l 697 693 l 697 971 l 68 972 l 68 1 l 700 0 l 700 275 l 347 275 l 347 347 l 697 347 l 697 625 l 347 625 l 347 693 m 185 1353 l 343 1125 l 589 1125 l 431 1353 l 185 1353 "},"É":{"ha":774,"x_min":68,"x_max":700,"o":"m 347 693 l 697 693 l 697 971 l 68 972 l 68 1 l 700 0 l 700 275 l 347 275 l 347 347 l 697 347 l 697 625 l 347 625 l 347 693 m 431 1125 l 589 1353 l 343 1353 l 185 1125 l 431 1125 "},"Ê":{"ha":774,"x_min":68,"x_max":700,"o":"m 347 693 l 697 693 l 697 971 l 68 972 l 68 1 l 700 0 l 700 275 l 347 275 l 347 347 l 697 347 l 697 625 l 347 625 l 347 693 m 304 1389 l 131 1133 l 251 1133 l 386 1286 l 521 1133 l 642 1133 l 468 1389 l 304 1389 "},"Ì":{"ha":424,"x_min":11,"x_max":415,"o":"m 53 972 l 53 0 l 368 0 l 368 972 l 53 972 m 11 1353 l 169 1125 l 415 1125 l 257 1353 l 11 1353 "},"Í":{"ha":424,"x_min":11,"x_max":415,"o":"m 53 972 l 53 0 l 368 0 l 368 972 l 53 972 m 257 1125 l 415 1353 l 169 1353 l 11 1125 l 257 1125 "},"Î":{"ha":424,"x_min":-42,"x_max":469,"o":"m 53 972 l 53 0 l 368 0 l 368 972 l 53 972 m 132 1389 l -42 1133 l 79 1133 l 214 1286 l 349 1133 l 469 1133 l 296 1389 l 132 1389 "},"Ñ":{"ha":942,"x_min":82,"x_max":850,"o":"m 82 972 l 85 0 l 413 0 l 408 346 l 849 1 l 850 975 l 551 972 l 551 572 l 82 972 m 615 1307 q 556 1249 600 1249 q 544 1249 550 1249 q 526 1252 538 1250 q 498 1259 515 1254 q 453 1272 481 1264 q 419 1279 435 1278 q 389 1281 403 1281 q 287 1230 335 1281 q 218 1089 239 1179 l 326 1089 q 350 1129 333 1118 q 389 1140 367 1140 q 427 1135 407 1140 q 468 1123 447 1129 q 509 1112 489 1117 q 547 1107 529 1107 q 654 1161 606 1107 q 724 1307 703 1215 l 615 1307 "},"Ò":{"ha":1099,"x_min":38,"x_max":1054,"o":"m 38 489 q 78 300 38 389 q 187 146 118 211 q 348 42 256 81 q 544 4 440 4 q 743 42 650 4 q 905 146 836 81 q 1014 300 974 211 q 1054 489 1054 389 q 1014 677 1054 589 q 905 831 974 765 q 743 934 836 896 q 544 972 650 972 q 348 934 440 972 q 187 831 256 896 q 78 677 118 765 q 38 489 38 589 m 335 489 q 351 572 335 533 q 397 640 368 611 q 465 686 426 669 q 549 703 504 703 q 630 686 593 703 q 693 640 667 669 q 734 572 719 611 q 749 489 749 533 q 734 406 749 444 q 693 338 719 367 q 630 292 667 308 q 549 275 593 275 q 465 292 504 275 q 397 338 426 308 q 351 406 368 367 q 335 489 335 444 m 347 1353 l 506 1125 l 751 1125 l 593 1353 l 347 1353 "},"Ó":{"ha":1099,"x_min":38,"x_max":1054,"o":"m 38 489 q 78 300 38 389 q 187 146 118 211 q 348 42 256 81 q 544 4 440 4 q 743 42 650 4 q 905 146 836 81 q 1014 300 974 211 q 1054 489 1054 389 q 1014 677 1054 589 q 905 831 974 765 q 743 934 836 896 q 544 972 650 972 q 348 934 440 972 q 187 831 256 896 q 78 677 118 765 q 38 489 38 589 m 335 489 q 351 572 335 533 q 397 640 368 611 q 465 686 426 669 q 549 703 504 703 q 630 686 593 703 q 693 640 667 669 q 734 572 719 611 q 749 489 749 533 q 734 406 749 444 q 693 338 719 367 q 630 292 667 308 q 549 275 593 275 q 465 292 504 275 q 397 338 426 308 q 351 406 368 367 q 335 489 335 444 m 593 1125 l 751 1353 l 506 1353 l 347 1125 l 593 1125 "},"Ô":{"ha":1099,"x_min":38,"x_max":1054,"o":"m 38 489 q 78 300 38 389 q 187 146 118 211 q 348 42 256 81 q 544 4 440 4 q 743 42 650 4 q 905 146 836 81 q 1014 300 974 211 q 1054 489 1054 389 q 1014 677 1054 589 q 905 831 974 765 q 743 934 836 896 q 544 972 650 972 q 348 934 440 972 q 187 831 256 896 q 78 677 118 765 q 38 489 38 589 m 335 489 q 351 572 335 533 q 397 640 368 611 q 465 686 426 669 q 549 703 504 703 q 630 686 593 703 q 693 640 667 669 q 734 572 719 611 q 749 489 749 533 q 734 406 749 444 q 693 338 719 367 q 630 292 667 308 q 549 275 593 275 q 465 292 504 275 q 397 338 426 308 q 351 406 368 367 q 335 489 335 444 m 467 1389 l 293 1133 l 414 1133 l 549 1286 l 683 1133 l 804 1133 l 631 1389 l 467 1389 "},"Õ":{"ha":1099,"x_min":38,"x_max":1054,"o":"m 38 489 q 78 300 38 389 q 187 146 118 211 q 348 42 256 81 q 544 4 440 4 q 743 42 650 4 q 905 146 836 81 q 1014 300 974 211 q 1054 489 1054 389 q 1014 677 1054 589 q 905 831 974 765 q 743 934 836 896 q 544 972 650 972 q 348 934 440 972 q 187 831 256 896 q 78 677 118 765 q 38 489 38 589 m 335 489 q 351 572 335 533 q 397 640 368 611 q 465 686 426 669 q 549 703 504 703 q 630 686 593 703 q 693 640 667 669 q 734 572 719 611 q 749 489 749 533 q 734 406 749 444 q 693 338 719 367 q 630 292 667 308 q 549 275 593 275 q 465 292 504 275 q 397 338 426 308 q 351 406 368 367 q 335 489 335 444 m 693 1307 q 633 1249 678 1249 q 622 1249 628 1249 q 604 1252 615 1250 q 576 1259 593 1254 q 531 1272 558 1264 q 497 1279 513 1278 q 467 1281 481 1281 q 365 1230 413 1281 q 296 1089 317 1179 l 404 1089 q 428 1129 411 1118 q 467 1140 444 1140 q 505 1135 485 1140 q 546 1123 525 1129 q 587 1112 567 1117 q 625 1107 607 1107 q 732 1161 683 1107 q 801 1307 781 1215 l 693 1307 "},"Ù":{"ha":1157,"x_min":69,"x_max":953,"o":"m 951 507 l 953 972 l 644 972 l 642 504 q 633 383 643 431 q 603 306 622 335 q 558 266 585 278 q 501 254 532 254 q 449 266 472 254 q 410 306 426 278 q 385 383 393 335 q 376 504 376 431 l 376 972 l 69 972 l 69 507 q 98 311 69 403 q 182 151 126 219 q 318 44 238 83 q 503 4 399 4 q 690 44 607 4 q 831 151 774 83 q 920 311 889 219 q 951 507 951 403 m 376 1353 l 535 1125 l 781 1125 l 622 1353 l 376 1353 "},"Ú":{"ha":1157,"x_min":69,"x_max":953,"o":"m 951 507 l 953 972 l 644 972 l 642 504 q 633 383 643 431 q 603 306 622 335 q 558 266 585 278 q 501 254 532 254 q 449 266 472 254 q 410 306 426 278 q 385 383 393 335 q 376 504 376 431 l 376 972 l 69 972 l 69 507 q 98 311 69 403 q 182 151 126 219 q 318 44 238 83 q 503 4 399 4 q 690 44 607 4 q 831 151 774 83 q 920 311 889 219 q 951 507 951 403 m 622 1125 l 781 1353 l 535 1353 l 376 1125 l 622 1125 "},"Û":{"ha":1157,"x_min":69,"x_max":953,"o":"m 951 507 l 953 972 l 644 972 l 642 504 q 633 383 643 431 q 603 306 622 335 q 558 266 585 278 q 501 254 532 254 q 449 266 472 254 q 410 306 426 278 q 385 383 393 335 q 376 504 376 431 l 376 972 l 69 972 l 69 507 q 98 311 69 403 q 182 151 126 219 q 318 44 238 83 q 503 4 399 4 q 690 44 607 4 q 831 151 774 83 q 920 311 889 219 q 951 507 951 403 m 496 1389 l 322 1133 l 443 1133 l 578 1286 l 713 1133 l 833 1133 l 660 1389 l 496 1389 "},"Ý":{"ha":1090,"x_min":28,"x_max":1050,"o":"m 401 478 l 401 0 l 658 0 l 658 475 l 1050 972 l 722 972 l 539 685 l 356 972 l 28 972 l 401 478 m 589 1125 l 747 1353 l 501 1353 l 343 1125 l 589 1125 "},"ß":{"ha":1788,"x_min":58,"x_max":1715,"o":"m 64 300 l 64 11 l 529 11 q 678 42 614 13 q 785 117 742 71 q 849 223 828 164 q 871 343 871 282 q 858 460 871 404 q 809 557 846 515 q 705 624 772 599 q 528 649 638 649 l 343 649 q 326 662 332 653 q 319 681 319 671 q 326 699 319 692 q 349 707 333 707 l 836 707 l 836 968 l 349 968 q 221 946 275 968 q 131 885 167 924 q 76 797 94 847 q 58 688 58 746 q 77 572 58 629 q 132 472 96 515 q 223 401 168 428 q 349 374 278 374 l 528 374 q 569 364 556 374 q 582 343 582 354 q 567 315 582 328 q 525 300 553 301 l 64 300 m 908 300 l 908 11 l 1374 11 q 1522 42 1458 13 q 1629 117 1586 71 q 1694 223 1672 164 q 1715 343 1715 282 q 1703 460 1715 404 q 1653 557 1690 515 q 1549 624 1617 599 q 1372 649 1482 649 l 1188 649 q 1170 662 1176 653 q 1164 681 1164 671 q 1171 699 1164 692 q 1193 707 1178 707 l 1681 707 l 1681 968 l 1193 968 q 1065 946 1119 968 q 975 885 1011 924 q 921 797 939 847 q 903 688 903 746 q 922 572 903 629 q 976 472 940 515 q 1067 401 1013 428 q 1193 374 1122 374 l 1372 374 q 1413 364 1400 374 q 1426 343 1426 354 q 1412 315 1426 328 q 1369 300 1397 301 l 908 300 "},"ÿ":{"ha":1090,"x_min":28,"x_max":1050,"o":"m 401 478 l 401 0 l 658 0 l 658 475 l 1050 972 l 722 972 l 539 685 l 356 972 l 28 972 l 401 478 m 207 1226 q 247 1128 207 1168 q 346 1088 288 1088 q 444 1128 404 1088 q 485 1226 485 1168 q 444 1325 485 1285 q 346 1365 404 1365 q 247 1325 288 1365 q 207 1226 207 1285 m 606 1226 q 646 1128 606 1168 q 744 1088 686 1088 q 843 1128 803 1088 q 883 1226 883 1168 q 843 1325 883 1285 q 744 1365 803 1365 q 646 1325 686 1365 q 606 1226 606 1285 "},"ý":{"ha":1090,"x_min":28,"x_max":1050,"o":"m 401 478 l 401 0 l 658 0 l 658 475 l 1050 972 l 722 972 l 539 685 l 356 972 l 28 972 l 401 478 m 589 1125 l 747 1353 l 501 1353 l 343 1125 l 589 1125 "},"ù":{"ha":1157,"x_min":69,"x_max":953,"o":"m 951 507 l 953 972 l 644 972 l 642 504 q 633 383 643 431 q 603 306 622 335 q 558 266 585 278 q 501 254 532 254 q 449 266 472 254 q 410 306 426 278 q 385 383 393 335 q 376 504 376 431 l 376 972 l 69 972 l 69 507 q 98 311 69 403 q 182 151 126 219 q 318 44 238 83 q 503 4 399 4 q 690 44 607 4 q 831 151 774 83 q 920 311 889 219 q 951 507 951 403 m 376 1353 l 535 1125 l 781 1125 l 622 1353 l 376 1353 "},"ú":{"ha":1157,"x_min":69,"x_max":953,"o":"m 951 507 l 953 972 l 644 972 l 642 504 q 633 383 643 431 q 603 306 622 335 q 558 266 585 278 q 501 254 532 254 q 449 266 472 254 q 410 306 426 278 q 385 383 393 335 q 376 504 376 431 l 376 972 l 69 972 l 69 507 q 98 311 69 403 q 182 151 126 219 q 318 44 238 83 q 503 4 399 4 q 690 44 607 4 q 831 151 774 83 q 920 311 889 219 q 951 507 951 403 m 622 1125 l 781 1353 l 535 1353 l 376 1125 l 622 1125 "},"û":{"ha":1157,"x_min":69,"x_max":953,"o":"m 951 507 l 953 972 l 644 972 l 642 504 q 633 383 643 431 q 603 306 622 335 q 558 266 585 278 q 501 254 532 254 q 449 266 472 254 q 410 306 426 278 q 385 383 393 335 q 376 504 376 431 l 376 972 l 69 972 l 69 507 q 98 311 69 403 q 182 151 126 219 q 318 44 238 83 q 503 4 399 4 q 690 44 607 4 q 831 151 774 83 q 920 311 889 219 q 951 507 951 403 m 496 1389 l 322 1133 l 443 1133 l 578 1286 l 713 1133 l 833 1133 l 660 1389 l 496 1389 "},"ü":{"ha":1157,"x_min":69,"x_max":953,"o":"m 951 507 l 953 972 l 644 972 l 642 504 q 633 383 643 431 q 603 306 622 335 q 558 266 585 278 q 501 254 532 254 q 449 266 472 254 q 410 306 426 278 q 385 383 393 335 q 376 504 376 431 l 376 972 l 69 972 l 69 507 q 98 311 69 403 q 182 151 126 219 q 318 44 238 83 q 503 4 399 4 q 690 44 607 4 q 831 151 774 83 q 920 311 889 219 q 951 507 951 403 m 240 1226 q 281 1128 240 1168 q 379 1088 321 1088 q 478 1128 438 1088 q 518 1226 518 1168 q 478 1325 518 1285 q 379 1365 438 1365 q 281 1325 321 1365 q 240 1226 240 1285 m 639 1226 q 679 1128 639 1168 q 778 1088 719 1088 q 876 1128 836 1088 q 917 1226 917 1168 q 876 1325 917 1285 q 778 1365 836 1365 q 679 1325 719 1365 q 639 1226 639 1285 "},"Ð":{"ha":1126,"x_min":54,"x_max":1061,"o":"m 163 572 l 54 572 l 54 382 l 163 382 l 163 0 l 576 0 q 765 38 676 0 q 919 141 854 75 q 1023 295 985 207 q 1061 483 1061 383 q 1023 674 1061 585 q 919 828 985 763 q 765 933 854 894 q 576 971 676 971 l 163 972 l 163 572 m 443 693 l 563 693 q 644 676 606 693 q 710 631 682 660 q 754 565 738 603 q 771 483 771 526 q 754 402 771 440 q 710 336 738 364 q 644 292 682 308 q 563 275 606 275 l 443 275 l 443 382 l 540 382 l 540 572 l 443 572 l 443 693 "},"ð":{"ha":1126,"x_min":54,"x_max":1061,"o":"m 163 572 l 54 572 l 54 382 l 163 382 l 163 0 l 576 0 q 765 38 676 0 q 919 141 854 75 q 1023 295 985 207 q 1061 483 1061 383 q 1023 674 1061 585 q 919 828 985 763 q 765 933 854 894 q 576 971 676 971 l 163 972 l 163 572 m 443 693 l 563 693 q 644 676 606 693 q 710 631 682 660 q 754 565 738 603 q 771 483 771 526 q 754 402 771 440 q 710 336 738 364 q 644 292 682 308 q 563 275 606 275 l 443 275 l 443 382 l 540 382 l 540 572 l 443 572 l 443 693 "},"ñ":{"ha":942,"x_min":82,"x_max":850,"o":"m 82 972 l 85 0 l 413 0 l 408 346 l 849 1 l 850 975 l 551 972 l 551 572 l 82 972 m 615 1307 q 556 1249 600 1249 q 544 1249 550 1249 q 526 1252 538 1250 q 498 1259 515 1254 q 453 1272 481 1264 q 419 1279 435 1278 q 389 1281 403 1281 q 287 1230 335 1281 q 218 1089 239 1179 l 326 1089 q 350 1129 333 1118 q 389 1140 367 1140 q 427 1135 407 1140 q 468 1123 447 1129 q 509 1112 489 1117 q 547 1107 529 1107 q 654 1161 606 1107 q 724 1307 703 1215 l 615 1307 "},"ò":{"ha":1099,"x_min":38,"x_max":1054,"o":"m 38 489 q 78 300 38 389 q 187 146 118 211 q 348 42 256 81 q 544 4 440 4 q 743 42 650 4 q 905 146 836 81 q 1014 300 974 211 q 1054 489 1054 389 q 1014 677 1054 589 q 905 831 974 765 q 743 934 836 896 q 544 972 650 972 q 348 934 440 972 q 187 831 256 896 q 78 677 118 765 q 38 489 38 589 m 335 489 q 351 572 335 533 q 397 640 368 611 q 465 686 426 669 q 549 703 504 703 q 630 686 593 703 q 693 640 667 669 q 734 572 719 611 q 749 489 749 533 q 734 406 749 444 q 693 338 719 367 q 630 292 667 308 q 549 275 593 275 q 465 292 504 275 q 397 338 426 308 q 351 406 368 367 q 335 489 335 444 m 347 1353 l 506 1125 l 751 1125 l 593 1353 l 347 1353 "},"ó":{"ha":1099,"x_min":38,"x_max":1054,"o":"m 38 489 q 78 300 38 389 q 187 146 118 211 q 348 42 256 81 q 544 4 440 4 q 743 42 650 4 q 905 146 836 81 q 1014 300 974 211 q 1054 489 1054 389 q 1014 677 1054 589 q 905 831 974 765 q 743 934 836 896 q 544 972 650 972 q 348 934 440 972 q 187 831 256 896 q 78 677 118 765 q 38 489 38 589 m 335 489 q 351 572 335 533 q 397 640 368 611 q 465 686 426 669 q 549 703 504 703 q 630 686 593 703 q 693 640 667 669 q 734 572 719 611 q 749 489 749 533 q 734 406 749 444 q 693 338 719 367 q 630 292 667 308 q 549 275 593 275 q 465 292 504 275 q 397 338 426 308 q 351 406 368 367 q 335 489 335 444 m 593 1125 l 751 1353 l 506 1353 l 347 1125 l 593 1125 "},"ô":{"ha":1099,"x_min":38,"x_max":1054,"o":"m 38 489 q 78 300 38 389 q 187 146 118 211 q 348 42 256 81 q 544 4 440 4 q 743 42 650 4 q 905 146 836 81 q 1014 300 974 211 q 1054 489 1054 389 q 1014 677 1054 589 q 905 831 974 765 q 743 934 836 896 q 544 972 650 972 q 348 934 440 972 q 187 831 256 896 q 78 677 118 765 q 38 489 38 589 m 335 489 q 351 572 335 533 q 397 640 368 611 q 465 686 426 669 q 549 703 504 703 q 630 686 593 703 q 693 640 667 669 q 734 572 719 611 q 749 489 749 533 q 734 406 749 444 q 693 338 719 367 q 630 292 667 308 q 549 275 593 275 q 465 292 504 275 q 397 338 426 308 q 351 406 368 367 q 335 489 335 444 m 467 1389 l 293 1133 l 414 1133 l 549 1286 l 683 1133 l 804 1133 l 631 1389 l 467 1389 "},"õ":{"ha":1099,"x_min":38,"x_max":1054,"o":"m 38 489 q 78 300 38 389 q 187 146 118 211 q 348 42 256 81 q 544 4 440 4 q 743 42 650 4 q 905 146 836 81 q 1014 300 974 211 q 1054 489 1054 389 q 1014 677 1054 589 q 905 831 974 765 q 743 934 836 896 q 544 972 650 972 q 348 934 440 972 q 187 831 256 896 q 78 677 118 765 q 38 489 38 589 m 335 489 q 351 572 335 533 q 397 640 368 611 q 465 686 426 669 q 549 703 504 703 q 630 686 593 703 q 693 640 667 669 q 734 572 719 611 q 749 489 749 533 q 734 406 749 444 q 693 338 719 367 q 630 292 667 308 q 549 275 593 275 q 465 292 504 275 q 397 338 426 308 q 351 406 368 367 q 335 489 335 444 m 693 1307 q 633 1249 678 1249 q 622 1249 628 1249 q 604 1252 615 1250 q 576 1259 593 1254 q 531 1272 558 1264 q 497 1279 513 1278 q 467 1281 481 1281 q 365 1230 413 1281 q 296 1089 317 1179 l 404 1089 q 428 1129 411 1118 q 467 1140 444 1140 q 505 1135 485 1140 q 546 1123 525 1129 q 587 1112 567 1117 q 625 1107 607 1107 q 732 1161 683 1107 q 801 1307 781 1215 l 693 1307 "},"ö":{"ha":1099,"x_min":38,"x_max":1054,"o":"m 38 489 q 78 300 38 389 q 187 146 118 211 q 348 42 256 81 q 544 4 440 4 q 743 42 650 4 q 905 146 836 81 q 1014 300 974 211 q 1054 489 1054 389 q 1014 677 1054 589 q 905 831 974 765 q 743 934 836 896 q 544 972 650 972 q 348 934 440 972 q 187 831 256 896 q 78 677 118 765 q 38 489 38 589 m 335 489 q 351 572 335 533 q 397 640 368 611 q 465 686 426 669 q 549 703 504 703 q 630 686 593 703 q 693 640 667 669 q 734 572 719 611 q 749 489 749 533 q 734 406 749 444 q 693 338 719 367 q 630 292 667 308 q 549 275 593 275 q 465 292 504 275 q 397 338 426 308 q 351 406 368 367 q 335 489 335 444 m 211 1226 q 251 1128 211 1168 q 350 1088 292 1088 q 449 1128 408 1088 q 489 1226 489 1168 q 449 1325 489 1285 q 350 1365 408 1365 q 251 1325 292 1365 q 211 1226 211 1285 m 610 1226 q 650 1128 610 1168 q 749 1088 690 1088 q 847 1128 807 1088 q 888 1226 888 1168 q 847 1325 888 1285 q 749 1365 807 1365 q 650 1325 690 1365 q 610 1226 610 1285 "},"è":{"ha":774,"x_min":68,"x_max":700,"o":"m 347 693 l 697 693 l 697 971 l 68 972 l 68 1 l 700 0 l 700 275 l 347 275 l 347 347 l 697 347 l 697 625 l 347 625 l 347 693 m 185 1353 l 343 1125 l 589 1125 l 431 1353 l 185 1353 "},"é":{"ha":774,"x_min":68,"x_max":700,"o":"m 347 693 l 697 693 l 697 971 l 68 972 l 68 1 l 700 0 l 700 275 l 347 275 l 347 347 l 697 347 l 697 625 l 347 625 l 347 693 m 431 1125 l 589 1353 l 343 1353 l 185 1125 l 431 1125 "},"ê":{"ha":774,"x_min":68,"x_max":700,"o":"m 347 693 l 697 693 l 697 971 l 68 972 l 68 1 l 700 0 l 700 275 l 347 275 l 347 347 l 697 347 l 697 625 l 347 625 l 347 693 m 304 1389 l 131 1133 l 251 1133 l 386 1286 l 521 1133 l 642 1133 l 468 1389 l 304 1389 "},"ë":{"ha":774,"x_min":50,"x_max":726,"o":"m 347 693 l 697 693 l 697 971 l 68 972 l 68 1 l 700 0 l 700 275 l 347 275 l 347 347 l 697 347 l 697 625 l 347 625 l 347 693 m 50 1226 q 90 1128 50 1168 q 189 1088 131 1088 q 288 1128 247 1088 q 328 1226 328 1168 q 288 1325 328 1285 q 189 1365 247 1365 q 90 1325 131 1365 q 50 1226 50 1285 m 449 1226 q 489 1128 449 1168 q 588 1088 529 1088 q 686 1128 646 1088 q 726 1226 726 1168 q 686 1325 726 1285 q 588 1365 646 1365 q 489 1325 529 1365 q 449 1226 449 1285 "},"ì":{"ha":424,"x_min":11,"x_max":415,"o":"m 53 972 l 53 0 l 368 0 l 368 972 l 53 972 m 11 1353 l 169 1125 l 415 1125 l 257 1353 l 11 1353 "},"í":{"ha":424,"x_min":11,"x_max":415,"o":"m 53 972 l 53 0 l 368 0 l 368 972 l 53 972 m 257 1125 l 415 1353 l 169 1353 l 11 1125 l 257 1125 "},"î":{"ha":424,"x_min":-42,"x_max":469,"o":"m 53 972 l 53 0 l 368 0 l 368 972 l 53 972 m 132 1389 l -42 1133 l 79 1133 l 214 1286 l 349 1133 l 469 1133 l 296 1389 l 132 1389 "},"ï":{"ha":424,"x_min":-125,"x_max":551,"o":"m 53 972 l 53 0 l 368 0 l 368 972 l 53 972 m -125 1226 q -85 1128 -125 1168 q 14 1088 -44 1088 q 113 1128 72 1088 q 153 1226 153 1168 q 113 1325 153 1285 q 14 1365 72 1365 q -85 1325 -44 1365 q -125 1226 -125 1285 m 274 1226 q 314 1128 274 1168 q 413 1088 354 1088 q 511 1128 471 1088 q 551 1226 551 1168 q 511 1325 551 1285 q 413 1365 471 1365 q 314 1325 354 1365 q 274 1226 274 1285 "},"à":{"ha":1093,"x_min":28,"x_max":1050,"o":"m 542 972 l 28 0 l 356 0 l 539 343 l 722 0 l 1050 0 l 542 972 m 344 1353 l 503 1125 l 749 1125 l 590 1353 l 344 1353 "},"á":{"ha":1093,"x_min":28,"x_max":1050,"o":"m 542 972 l 28 0 l 356 0 l 539 343 l 722 0 l 1050 0 l 542 972 m 590 1125 l 749 1353 l 503 1353 l 344 1125 l 590 1125 "},"â":{"ha":1093,"x_min":28,"x_max":1050,"o":"m 542 972 l 28 0 l 356 0 l 539 343 l 722 0 l 1050 0 l 542 972 m 464 1389 l 290 1133 l 411 1133 l 546 1286 l 681 1133 l 801 1133 l 628 1389 l 464 1389 "},"ã":{"ha":1093,"x_min":28,"x_max":1050,"o":"m 542 972 l 28 0 l 356 0 l 539 343 l 722 0 l 1050 0 l 542 972 m 690 1307 q 631 1249 675 1249 q 619 1249 625 1249 q 601 1252 613 1250 q 573 1259 590 1254 q 528 1272 556 1264 q 494 1279 510 1278 q 464 1281 478 1281 q 362 1230 410 1281 q 293 1089 314 1179 l 401 1089 q 425 1129 408 1118 q 464 1140 442 1140 q 502 1135 482 1140 q 543 1123 522 1129 q 584 1112 564 1117 q 622 1107 604 1107 q 729 1161 681 1107 q 799 1307 778 1215 l 690 1307 "},"ä":{"ha":1093,"x_min":28,"x_max":1050,"o":"m 542 972 l 28 0 l 356 0 l 539 343 l 722 0 l 1050 0 l 542 972 m 208 1226 q 249 1128 208 1168 q 347 1088 289 1088 q 446 1128 406 1088 q 486 1226 486 1168 q 446 1325 486 1285 q 347 1365 406 1365 q 249 1325 289 1365 q 208 1226 208 1285 m 607 1226 q 647 1128 607 1168 q 746 1088 688 1088 q 844 1128 804 1088 q 885 1226 885 1168 q 844 1325 885 1285 q 746 1365 804 1365 q 647 1325 688 1365 q 607 1226 607 1285 "},"˚":{"ha":376,"x_min":39,"x_max":335,"o":"m 188 1078 q 242 1056 219 1078 q 264 1001 264 1033 q 242 948 264 969 q 188 926 219 926 q 133 948 154 926 q 111 1001 111 969 q 133 1056 111 1033 q 188 1078 156 1078 m 188 1150 q 128 1138 156 1150 q 82 1107 101 1126 q 51 1060 63 1088 q 39 1001 39 1032 q 81 896 39 938 q 186 854 122 854 q 244 865 217 854 q 291 896 271 876 q 323 942 311 915 q 335 1001 335 969 q 323 1059 335 1032 q 291 1106 311 1086 q 244 1138 271 1126 q 188 1150 218 1150 "},"ﬁ":{"ha":1197,"x_min":68,"x_max":1142,"o":"m 347 693 l 697 693 l 697 971 l 68 972 l 68 1 l 346 0 l 347 347 l 697 347 l 697 625 l 347 625 l 347 693 m 826 972 l 826 0 l 1142 0 l 1142 972 l 826 972 "},"ﬂ":{"ha":1547,"x_min":68,"x_max":1474,"o":"m 347 693 l 697 693 l 697 971 l 68 972 l 68 1 l 346 0 l 347 347 l 697 347 l 697 625 l 347 625 l 347 693 m 1121 974 l 842 972 l 842 1 l 1474 0 l 1474 275 l 1121 275 l 1121 974 "},"Ł":{"ha":929,"x_min":57,"x_max":856,"o":"m 503 974 l 224 972 l 224 593 l 57 507 l 57 317 l 224 403 l 224 1 l 856 0 l 856 275 l 503 275 l 503 546 l 701 649 l 701 839 l 503 736 l 503 974 "},"ł":{"ha":929,"x_min":57,"x_max":856,"o":"m 503 974 l 224 972 l 224 593 l 57 507 l 57 317 l 224 403 l 224 1 l 856 0 l 856 275 l 503 275 l 503 546 l 701 649 l 701 839 l 503 736 l 503 974 "},"^":{"ha":697,"x_min":46,"x_max":649,"o":"m 265 976 l 46 639 l 167 639 l 347 818 l 528 639 l 649 639 l 429 976 l 265 976 "},"~":{"ha":1036,"x_min":86,"x_max":956,"o":"m 956 632 q 828 549 886 575 q 713 524 771 524 q 632 538 681 524 q 531 570 583 553 q 428 602 478 588 q 344 617 378 617 q 218 593 278 617 q 86 515 158 569 l 86 294 q 211 376 153 350 q 329 403 269 403 q 410 388 361 403 q 511 356 458 374 q 614 324 564 339 q 697 310 664 310 q 824 333 764 310 q 956 411 883 357 l 956 632 "},"_":{"ha":694,"x_min":0,"x_max":694,"o":"m 694 -199 l 0 -199 l 0 -328 l 694 -328 l 694 -199 "},"Þ":{"ha":793,"x_min":63,"x_max":715,"o":"m 63 969 l 63 6 l 318 6 l 318 282 l 503 282 q 573 304 536 282 q 641 362 610 326 q 693 440 672 397 q 714 524 714 483 q 685 658 715 604 q 606 743 656 711 q 492 788 557 775 q 357 800 426 800 l 318 800 l 318 969 l 63 969 m 318 567 l 357 567 q 381 566 365 567 q 411 561 396 565 q 438 547 426 557 q 449 519 449 538 q 438 489 449 500 q 413 471 428 478 q 381 461 397 464 q 353 458 365 458 q 335 459 344 458 q 318 460 326 460 l 318 567 "},"þ":{"ha":793,"x_min":63,"x_max":715,"o":"m 63 969 l 63 6 l 318 6 l 318 282 l 503 282 q 573 304 536 282 q 641 362 610 326 q 693 440 672 397 q 714 524 714 483 q 685 658 715 604 q 606 743 656 711 q 492 788 557 775 q 357 800 426 800 l 318 800 l 318 969 l 63 969 m 318 567 l 357 567 q 381 566 365 567 q 411 561 396 565 q 438 547 426 557 q 449 519 449 538 q 438 489 449 500 q 413 471 428 478 q 381 461 397 464 q 353 458 365 458 q 335 459 344 458 q 318 460 326 460 l 318 567 "},"Å":{"ha":1093,"x_min":28,"x_max":1050,"o":"m 542 972 l 28 0 l 356 0 l 539 343 l 722 0 l 1050 0 l 542 972 m 544 1222 q 599 1200 576 1222 q 621 1146 621 1178 q 599 1092 621 1114 q 544 1071 576 1071 q 490 1092 511 1071 q 468 1146 468 1114 q 490 1200 468 1178 q 544 1222 513 1222 m 544 1294 q 485 1283 513 1294 q 439 1251 458 1271 q 408 1204 419 1232 q 396 1146 396 1176 q 438 1040 396 1082 q 543 999 479 999 q 601 1010 574 999 q 648 1040 628 1021 q 680 1087 668 1060 q 692 1146 692 1114 q 680 1203 692 1176 q 648 1251 668 1231 q 601 1283 628 1271 q 544 1294 575 1294 "},"å":{"ha":1093,"x_min":28,"x_max":1050,"o":"m 542 972 l 28 0 l 356 0 l 539 343 l 722 0 l 1050 0 l 542 972 m 544 1222 q 599 1200 576 1222 q 621 1146 621 1178 q 599 1092 621 1114 q 544 1071 576 1071 q 490 1092 511 1071 q 468 1146 468 1114 q 490 1200 468 1178 q 544 1222 513 1222 m 544 1294 q 485 1283 513 1294 q 439 1251 458 1271 q 408 1204 419 1232 q 396 1146 396 1176 q 438 1040 396 1082 q 543 999 479 999 q 601 1010 574 999 q 648 1040 628 1021 q 680 1087 668 1060 q 692 1146 692 1114 q 680 1203 692 1176 q 648 1251 668 1231 q 601 1283 628 1271 q 544 1294 575 1294 "},"¸":{"ha":694,"x_min":178,"x_max":485,"o":"m 408 0 l 314 0 q 359 -68 344 -40 q 374 -114 374 -96 q 351 -157 374 -142 q 290 -172 329 -172 q 240 -167 268 -172 q 178 -151 211 -162 l 178 -254 q 249 -267 214 -262 q 315 -272 283 -272 q 443 -241 401 -272 q 485 -146 485 -210 q 466 -78 485 -114 q 408 0 447 -42 "},"×":{"ha":1164,"x_min":174,"x_max":990,"o":"m 990 729 l 876 843 l 582 549 l 288 843 l 174 729 l 468 435 l 174 142 l 288 28 l 582 321 l 876 28 l 990 142 l 696 435 l 990 729 "},"÷":{"ha":1164,"x_min":147,"x_max":1017,"o":"m 478 268 l 478 58 l 686 58 l 686 268 l 478 268 m 478 813 l 478 603 l 686 603 l 686 813 l 478 813 m 147 515 l 147 356 l 1017 356 l 1017 515 l 147 515 "},"ç":{"ha":725,"x_min":53,"x_max":672,"o":"m 538 0 l 672 0 l 672 275 l 551 275 q 470 292 508 275 q 404 336 432 308 q 360 402 376 364 q 343 483 343 440 q 360 565 343 526 q 404 631 376 603 q 470 676 432 660 q 551 693 508 693 l 669 693 l 669 971 l 538 971 q 349 933 438 971 q 194 828 260 894 q 91 674 129 763 q 53 483 53 585 q 91 295 53 383 q 194 141 129 207 q 349 38 260 75 q 538 0 438 0 m 439 0 l 344 0 q 390 -68 375 -40 q 404 -114 404 -96 q 382 -157 404 -142 q 321 -172 360 -172 q 270 -167 299 -172 q 208 -151 242 -162 l 208 -254 q 279 -267 244 -262 q 346 -272 314 -272 q 474 -241 432 -272 q 515 -146 515 -210 q 497 -78 515 -114 q 439 0 478 -42 "},"Ç":{"ha":725,"x_min":53,"x_max":672,"o":"m 538 0 l 672 0 l 672 275 l 551 275 q 470 292 508 275 q 404 336 432 308 q 360 402 376 364 q 343 483 343 440 q 360 565 343 526 q 404 631 376 603 q 470 676 432 660 q 551 693 508 693 l 669 693 l 669 971 l 538 971 q 349 933 438 971 q 194 828 260 894 q 91 674 129 763 q 53 483 53 585 q 91 295 53 383 q 194 141 129 207 q 349 38 260 75 q 538 0 438 0 m 439 0 l 344 0 q 390 -68 375 -40 q 404 -114 404 -96 q 382 -157 404 -142 q 321 -172 360 -172 q 270 -167 299 -172 q 208 -151 242 -162 l 208 -254 q 279 -267 244 -262 q 346 -272 314 -272 q 474 -241 432 -272 q 515 -146 515 -210 q 497 -78 515 -114 q 439 0 478 -42 "},"Ø":{"ha":1099,"x_min":38,"x_max":1054,"o":"m 38 489 q 90 272 38 371 q 233 106 143 172 l 115 -133 l 306 -133 l 385 29 q 544 4 460 4 q 743 42 650 4 q 905 146 836 81 q 1014 300 974 211 q 1054 489 1054 389 q 1037 613 1054 553 q 988 726 1019 674 q 913 823 957 779 q 814 899 868 867 l 890 1054 l 700 1054 l 654 961 q 599 969 626 967 q 544 972 572 972 q 348 934 440 972 q 187 831 256 896 q 78 677 118 765 q 38 489 38 589 m 749 489 q 734 406 749 444 q 693 338 719 367 q 630 292 667 308 q 549 275 593 275 q 528 275 538 275 q 508 278 518 275 l 689 644 q 733 575 717 615 q 749 489 749 535 m 335 489 q 349 567 335 531 q 390 633 364 604 q 451 679 415 661 q 526 701 486 697 l 367 376 q 335 489 335 425 "},"ø":{"ha":1099,"x_min":38,"x_max":1054,"o":"m 38 489 q 90 272 38 371 q 233 106 143 172 l 115 -133 l 306 -133 l 385 29 q 544 4 460 4 q 743 42 650 4 q 905 146 836 81 q 1014 300 974 211 q 1054 489 1054 389 q 1037 613 1054 553 q 988 726 1019 674 q 913 823 957 779 q 814 899 868 867 l 890 1054 l 700 1054 l 654 961 q 599 969 626 967 q 544 972 572 972 q 348 934 440 972 q 187 831 256 896 q 78 677 118 765 q 38 489 38 589 m 749 489 q 734 406 749 444 q 693 338 719 367 q 630 292 667 308 q 549 275 593 275 q 528 275 538 275 q 508 278 518 275 l 689 644 q 733 575 717 615 q 749 489 749 535 m 335 489 q 349 567 335 531 q 390 633 364 604 q 451 679 415 661 q 526 701 486 697 l 367 376 q 335 489 335 425 "},"C":{"ha":725,"x_min":53,"x_max":672,"o":"m 538 0 l 672 0 l 672 275 l 551 275 q 470 292 508 275 q 404 336 432 308 q 360 402 376 364 q 343 483 343 440 q 360 565 343 526 q 404 631 376 603 q 470 676 432 660 q 551 693 508 693 l 669 693 l 669 971 l 538 971 q 349 933 438 971 q 194 828 260 894 q 91 674 129 763 q 53 483 53 585 q 91 295 53 383 q 194 141 129 207 q 349 38 260 75 q 538 0 438 0 "},"V":{"ha":1090,"x_min":28,"x_max":1050,"o":"m 28 972 l 542 0 l 1050 972 l 722 972 l 539 629 l 356 972 l 28 972 "},"I":{"ha":424,"x_min":53,"x_max":368,"o":"m 53 972 l 53 0 l 368 0 l 368 972 l 53 972 "},"A":{"ha":1093,"x_min":28,"x_max":1050,"o":"m 542 972 l 28 0 l 356 0 l 539 343 l 722 0 l 1050 0 l 542 972 "}}}
